<mxfile host="app.diagrams.net" agent="Mozilla/5.0 (Windows NT 10.0; Win64; x64) AppleWebKit/537.36 (KHTML, like Gecko) Chrome/129.0.0.0 Safari/537.36" version="24.7.17">
  <diagram name="Page-1" id="luB2n4snwolbCdcfC4NB">
    <mxGraphModel dx="1900" dy="669" grid="1" gridSize="10" guides="1" tooltips="1" connect="1" arrows="1" fold="1" page="1" pageScale="1" pageWidth="850" pageHeight="1100" math="0" shadow="0">
      <root>
        <mxCell id="0" />
        <mxCell id="1" parent="0" />
        <mxCell id="F_-EiX4ZoE0ep-XaQffV-3" value="" style="shape=image;verticalLabelPosition=bottom;labelBackgroundColor=default;verticalAlign=top;aspect=fixed;imageAspect=0;image=data:image/png,iVBORw0KGgoAAAANSUhEUgAAAaAAAAHLCAIAAAABZ9uXAAAgAElEQVR4Aey9B1wUV7//n/u6ee69//vcf5InzSQ2olgwig1FRKOIicEWG4miUVGxxm40RsSSaIwK9o7SuzRBeu9NWKqAgNLZwtbps7vzy+7oug8gLrALW868fCXDzJlTPuec937POd8z8w4FDqBAvytgb2/f72mCBA1RgXcMsdCgzAOtAADcQNeAoaQPAGcoNa1V5QSA06rq0OPMAMDpceVqb9EA4LS3bvQrZwBw+lWfOlIaADgdqSidzyYAnM5XoS4WAABOF2tNF/MMAKeLtabzeQaA0/kq1JECAMDpSEXpVzYB4PSrPrW3NABw2ls3epwzADg9rlytKhoAnFZVh6FkBgDOUGp6oMvZM8AxGAwnJyf7V4eTkxODwRjoIoD0dUYB0H50pqq0L6O9azw9AJy/vz9NNgcHhx07djg4ONB/+vv7a58aIEdapwBoP1pXJbqToV43HlUBx2AwaJzFxMQoZImJiaEvAjtOoQk46VIB0H66lAVcVEWBvjQeVQFHj0yV6UbnjGack5OTKhkFYQxWAdB+DLbq+17wvjQeVQFnb2/v4ODQZV63bt0K5oy7VAZcVCgA2o9CCnDSUwX60nh6ALgdO3Z0mbMzZ87QA1XwX6BANwqA9tONOOBW9wp033i65BJ9sQeAe5MFR682oIgI/AMKvEmBbn6EQft5k2jgOq3AWxuPGgDX/TD4uKMjqAygQDcKHHd0tLe3f9McLmg/3UgHbnXfeLpfAFDVgut+ISMvLwdUA1CgGwXy8nLoMYgy4xSr8KD9dCMduNV94+nehUNVwFEU9SZXFG9vL1AHQIG3KuDt7UUzroMfJWg/b5UOBHhT43mrE24PAEdRVAdn4uOOjuC3FzQ+1RXIy8uhhxs06UD7UV06ELJD41FxG1XPAKeYzLO3tweKAwWAAkCB/legR05pAHBg8RcoABTQJQUA4HSptvr/BxCkCBTQaQUA4PQEcASOkASqYlsUkxiBI50D4xhMUSSOwZ1vdbgiCyklKUosEeMYCnW4iyIiiRijKDElJbtMiA6PISIxiXV+liRQ5TxIxHg3kXR+XHGFkpKqa6J4qvsTDIXkBZeQRBcCdv8sjsFqz0/3KYK7AHD6ADgCg5ltzTXPKt8EAjGJKaOkorykseE58e8gI3CkpbnRy9OjublRmS+dOwmOwTwuOyE+NjTkYUV5KYEjHRhH4Eh5WUloyMOkxPh2DrPLXGEoRODIs+pKkZCn/DiGQrU1VXxeO47BGApBIn5xcWFba7NymM5Z6nwFhgQPgwKKCvO7TL1zeFWuYCiEoaLUlCTXe3fKyop7FDMur6PSUgYk4mMo9KYfBlWyAcKorgAAnD4AjqIkN65fW736R5JAaRDgGEz/IwlUIsbT01OioyMlYpwkUD6P8913C06dOkFRYhQRycwKEiVxRCohcrIz33v/g+ycLKkERxERhkIkgSripFsVjsECfvu6dWs//PBDI6PhX35p9DAoQLm7SsR4XGzU0KFDhg4Z8tlnn61YvpzNbutATAJHKErs6+u1YMG3rS3NynaNRIxv3LD+/Lk/KUpCEmhLS9OsWbP8/Xwo6rUxSMORzjx9TmcSQyHaOMUxWCjgjhk9+q9zZymK6kAiAkfEJKbIEoEjOAbTJnAHjCoUQFFZO6EoSWCA3+DBXyxcaBMbEyURy1RS/FOOVpFDWkZ5eSXu7g9mz57V3NzA5bK9vTyamxoUBe+ssyJacNIXBQDgXjfQvug4gM/iGAyJ+POtrT/88MOK8lIZaxARn98uEvIgEb+h4QWPx1uw4NuNGzZw2zkILOS1s2KiI8tKZQYI3UUbG+tZrFaKEufnZn/66aDc3GypRDYqJAm0ubmhtaWJJFAFI2jz7dSpE/FxMe0c1pIli6ytrWFIoOCFmMSSkhJ+P3Wqra0pPCz0gw/e9/f3oWFKq0THsHfv7v/+7/82NZ3Q1tqq6OcyiEhJW9tVH7z/fmZGGkVRTU0Npqamnh5uJIlz25kILMRQSCTk8bhsFBEJ+O0EjnA4zJaWRjmzoIaGFwJ+u0SMCwVcU9MJFy/81dbWymEzFQiWSggel1Nf/xwS8SVi2QBZHpWQz29vaJBdxF4xi8ARAkOamuqZbS0S+aBeIODPn2+9ccNPPB5XIQiNMIkYb+cwGxpeILBIIsb5PA6bJcM6LQuL2SIU8srLS2JjowgceRQeNviLL7Iy0wUCnsxQxaCG+udtbT22Ugew1elK0gBwOg84qYTIzEgbOnTooEGDrly5RFESiRg7d+7sT+vW/WC7avYsy7Nn/vj4408+/+wza+t5Gempp0+dmDXL8uHDQIqSPsnPXblyxeTJk8zNze+73i0oyBs06DMZ4KTi9nbmoYP7p0yZYjZ1yq+/HuYojTQxFJJKCIkYpyhq/fp133zzDQwJlG0fkkClEoKiqJyc7EGDPg0K8qekMmuR/icmsaLCgqVLFq9bazd16pTW1pYOgFuzZvU//vHu7Fmz2Gwmi9k6adJEPz/f3JyslStX1NfXSaWSiEdhtrarWMzWkyeO79yx3dp63qRJE48c/sXBYcukiRO//fab4uIiDIWmTJ5sMnbM9OnTpk+bdt/1Hg30R+Ghs2ZZTpxoumihTUZ6ikRM7N27Z8uWTTY231lbz2tseE7KZydJAmUxW/bs2T1lyuRp06ZdOP8XDAkdj/32f//3z+HDhx/99YjCfKPNxgf371lYzJg0aeLKlSuqqipKS4rmzPk6LjaaoigX5ws//bQuKipi9uxZu3buYDFbvl+y5B//+MeUyZMPHjwg4Lfv27vH1HTCtGlm7u4POtjLCtHASe8UAIDTecBRlOTnXbt+/PGHY0d/nT17FgwJKErs4LD53XffdXG5kJQYV1vzzHLmzOXLl2VmpLNZrRnpqUZGw8+d+5PDZn81btyiRQuTkxMfPLgfHRVZ+CRv0CCZBUdR0kOHDpiaToiLjYmIeDR8+PBTp09IpYRyI5OI8ZLiws8///zyZRdKSirfos+lEmLf3j1jx45pbW3qYO8I+FyCQG/dujFp0sTOgFu5csW6tXbffDNv+7atba0tUyZP9g/wi456PHTo0OqqCoqi7rveGzZ0aHNT44oVy42GGwU/DPrt1yPvvvufO3fsiI2NNjEZa2+/EcdRU9MJS5cuSUpKOLB/3wcffBD1OLIgP9fIyOjPs2cL8vM2bFhvOmECs63F2nreBx98cN/1XlpqMj1BJlskkRB79/w8bOiwqKjHbm73P/zwX97eXkVFT8aOHWNnt6agIF9hsUolRGRk+LBhQ2/dvJGTnfXddwvmzbPicjk7dmwzN5/m6+s9ePAXPj5ePC5n27atU6ZM5vPb7929++mnn3p5eVSUl8VER37wwQfXrl318fGOiY5UFqqzpOBKTxUAgNNtwBEE2tj4YvSoUQH+vkWFBR999FFGeurfI7stDptnzZolM6Nka53SJUsW//zzToqi6NGTxYwZLi7OgYGBgwd/UV5eJnfJJimKypMPUQsKcvk8zrBhw5YuXXL16pWrV6+aTTOzsrJSXkyQDb5wxM5utampKYvZ3LlbUlIyNyfrgw8+uHLZhaIkHdqlbC2Skl69erlLwC1fvmzvnt1PnuQbG4+8fNnF3Hy6v79fbEz0yJEjn1U/pSjK3e3+KGPjlubGlSuW79yxnaKoosKCwYO/yM/PoShq/749863nwZBgoqmpPHWKJDHzGeZ7dv98+tTJjz/66OLF81euXN67d88H73+Qlpr83XffbtpkT1FS6hXBcQzmtjONhg//SzYVKJNtxYpl69f/JJWQs2ZZnjnzO0VRdIno5YK1a9eMGDHC2fni1StX7O03/vP//lld/ZTbzpo9y/J///d/HR1/k4hl9uytWzdnzDCHYWFKctLwYcOqqp5KpdLSkqIvvzRatWpVRUWZVMnO7aAY+LN3CgDA6TbgKEp8+/aN999/z9n5/N07tz/++OP9+/fKALdls+2qlfQwSiohFi602blzu1RCkATKYbeZT59++fKlS5dcZCYMs1VMYrT3Aw04BuPJ87qaTz/9dPnyZb8d/fXQwQO//nrEw91Nvob40iOEoiT+fr7/+//9b2hoMEVJ6cYnJjF6sEngiIDfPnfunPnzrUVCHn0Rx2CphFAYPhQl7gZwW7fKXph6+/aNDz/817/+9a/g4Icx0VHGxsa1NVUURXl5uisAt2uX7M2DebnZQ4YMyc7OoCjq4MF9CsA5Xzwv81ahqBUrVmxY/9P2bVuN5APMQ4cOHP7llz/+OF1X+2z+/PmHD/9CSUnFKJskkKbGF4MGyYwsOfjILVs2L126BEVEM2dayNZnXlms8lk2yNp63ldffXX06JFDBw8eOfLLn2fPtLY0ymph86Z33nknJiZKFgklvnbtCg24xITYYUOHlpeXiEmMXgL69ttvPv30k9u3bhC4qr4+vevwhvYUAJwOA47AEUgk+G7BtyNHjrRba2e3Zs3EiaaTJ038e357+/Ztq1auoF1DpBJi0aKF639aR3czGnDOzhdjYqI/+ujDxMR4iqIwFIIhwZMnee+9915yciKKQmNGjz5y5DC93w5/tRyhANnzupoxY8Y4OGzGcZSUr0hiKFRUWPC0okzuTCc+9+fZjz/+OCsrQyIR47hsrp3FbMnMSOO2szG5e0r3gNu21UEq96GzW7P6nXfeCQ0NSU5KHDRoUFmp7MNsf549IwNcS5PMgtsps+CUAXfgwEvAmZpOOH/+HEVR7RyWicnY338/7eJycfiwYSxmG0VRUglBL7laWVn98sshZcDR7ikTJozft0/2awEJeWZTp+7fv48ksQ6AQxGRVEJs3eoww9xcJBJQFCUWyyhPUdKQ4KCRI0Z88818s6lTXzyvoShKAbikxPjPP/88Py9XKpUisBCGBAgCr17941dffcXjtis4a2gw0kR5AeB0GHBSKZmUGP8f//EfAQF+FCWVSsXp6Snv/uNdfz/f7du2LlmymAYcJSXPnvnjo48/cnDY4uZ2n81iTp486Y/ff0dRZPGiRV8afbl798/Lly/75ZeDTY31xsbG5ubmDfXPPT3cPvzww3Vr7XZs3/bdggVPK8ro2DAUQmDhTz+te+edd2bNslz94w8rV65ITUni87nGxiPnWc2l3U3+7///v/fff3/1jz+sWLH8yJFfMBS6dfP6P/7xrmzBQe6eQlFiZ+cLJiZjW/7dTYSiyIULbTbZb5RKcKmEqKt7Nn78eC8v97bWZiMjI2vrebt27Rw8+Asjo+HNTY2LFy3cvNmeoqjsrIyPP/44M1O28Lp7965ZljMRWGhiMtbY2Hj/vr1zvp49aZJpVWVFQ33d9GlmZmZTDx448O2331y9clkqFc8wN9+zZ7cy4GSLuRLyzp1bn3zyyc6dO75f9v2QIUMK8vMIHJk4ceKxY0eVF4XFJFZSXDRy5Ii5c+cePLDP2toq+GFQddXTIUOGHDl8iMdrN58+bb71PD6fd+XypcmTJwn47fUvaseOHTN37pwjh38JCPCbN8/q5107x44Z83ctwLDMO0cTXd0w4wSA02HAkSSalZn+119/MtuaSULmzCUS8lycLyQmxkVHRQYG+tPjQRyD2ezWC+f/2rp1S4C/r1DAe3BfNqEuEROtLY3Xrl1x2Opw9Oiv6WkpOI6kpSY7Ov5WVVkuJrHHEeF79uzet3ePr49XO4eliK2dw7x8yfn306ecjjseO/bbsWNHC58U4Bhy/dpVby8PiYRIT00+ecLp9KmTjsd+O/bb0du3bsCQgMF4cvr0yarKcnrEShJodlbGnTu3eFyOYtyKIiKSQAP8fSMiwumtAhIJERsTJXMZkZLp6akH9u8/edIp+GHAzRvXue3sAH+/yMhwsRhvqK+7fMnlxYtaiZiIjY3y9HSHIcHVq5dv3ri2a9eOkyecKuTjQZJAa55V/v776e3btp7/68/SkiICRz3cH8TGRiuv5NKeHygsCgsN3rVr55Ejh/Nyc8QkisBC13t3kpMSOgQWkxiDUXDc8diO7dsuX3JpqH+emZF25swfba1NUglZzCg8dfLE87pn+fm59+/fEwq4YhJLTIj/edfOo0eP5OdlX71yacuWTb//fqq2pkpZCsNEknpLDQCnw4CjcUBRUkWvoCfvxSQukRDSV/NEKCKiHU0pSiyVEBgqoqRiuTkmJAmEoiTyWSopPWEnd/4Q09Nt9J4kOoCyWSFPRUKPXun/0h2ekpJSiWylVT5GU7ovnzuXXxQrL0eISYyiJJjch1a5WVNSUiKPh74oG+PKR7VSmWMKnVux/EFIKpGliMBC+bj4pQ50EeTbxRThJZJXe8LoROkiv8y2fMOZcgboc3kxZQlRlIQuF+3rq3AQUX5EnuhLJWkXQoqS0oWVpyjLm9x75uVMn0SMS+V73cQkJj+R7XujbWTlaMF5HxUAgNNtwPWx+sHjQAH9VgAADgAOKAAU0FsFAOD0tmr1+5cZlA4ooIoCAHAAcEABoIDeKgAAp7dVq8rvGwgDFNBvBQDgAOCAAkABvVUAAE5vq1a/f5lB6YACqigAAAcABxQACuitAgBwelu1qvy+gTBAAf1WAAAOAA4oABTQWwUA4PS2avX7lxmUDiigigIAcABwQAGggN4qAACnt1Wryu8bCAMU0G8FAOAA4IACQAG9VQAATm+rVr9/mUHpgAKqKAAABwAHFAAK6K0CAHB6W7Wq/L6BMEAB/VYAAA4ADigAFNBbBQDgtKVqcQwmcITAYfBPOxRACAxWflG7fls6+lo6ADitABwCC5ltzU1NL5qb6sE/bVCgqfFFa0uT4kP3+tr/9b5cAHADDzgMhfi89ujo6PT0tKysTHBogwJZmZnR0VFNjS+Uv5Kj9zjQvwICwGkF4HhcdlJSEpvN5vP5PHBogQJ8viA7O7v+RR0AnE5TDwBOWwCXnJzEYrF4PB4XHFqgAI/HA4DTabTRmQeAA4DTApxoXxYA4PSAbigiAoADgNM+umhBjgDgAOCUPl3e7am9vb1+iKWhUmAoxOOywRBVC7D2OgsAcBpq7f0cLbDggAX3uleDM4UCAHD9TCINJQcABwCn6NTg5LUCAHAaIk4/RwsABwD3uleDM4UCAHD9TCINJQcABwCn6NTg5LUCAHAaIk4/RwsABwD3uleDM4UCAHD9TCINJQcABwCn6NTg5LUCAHAaIk4/RwsApyeA4/F4QqFQIBC87qPqO+PxeAKBQCgUGs5GCwC4fiaRhpIDgNMHwNFcKy4urqio4HA4XC4XgiBVYMfj8WAY5vP53cCQ5mZlZWVhYWFLS0s3Ift+SygUikSivsdDl6svOAaA0xBx+jlaADidB5xQKHz27NmyZcvGjBkzatQoV1dXDMOSk5MZDAYNC9r+EggEdIfn8Xh8+SEUCjkcTnR0dF1dnVAo5HK59HVlvgiFwurq6h9//HG0/LCzs2tvb6f3wisiVDxIX6GTU05LIBAoM5TP53d4ln5EJBIVFhampaXRpiL93gH6WUURFHlTjkRRIkUG2traIiMjm5qaVKG8Ik7lEwC4fiaRhpIDgNN5wGEY5uLiMnr06KysrMTERAaDwWKxZsyYce7cORaLxeVy29vbnz17VltbS4ODyWS2yY+6urrs7OwJEyY8fvyY3uff1tbW2tqqMHz4fD6Hw/nhhx9mzJiRkJCQnZ0dHx9Pm4etra1Pnz5lsVgikYjNZrNYLCaTWV1dzePxOBxOVVUVm80WCAR0hHV1dbW1tSKRiGZWfX19ZWVle3s7TdiWlhYOh/Ps2bO2tjYHB4cNGzbQV9ra2uicNzc3i0Si2trahoYGGsQQBDU1NVVWVnI4HJFIxGKxOBxOa2trVVUVl8uFYTg1NdXY2Dg1NZVWQJlcKp4DwGmIOP0cLQCcPgDu2rVro0aNKi8vpyhKLBb7+/v/85//HD169P79+5ubmw8cODB+/HgTExNHR0cEQcLCwqytrZctW7ZgwYJt27b9z//8j5mZmYuLC47jGzZssLW15XA4tMEFw3BycvInn3ySlJREkiT06khKSrK2tjYzM/vuu+/y8vKKi4sXL15Mm5ArV65cvXr1uHHjVq1a1dTUdP/+/enTp3/99dfjx4//7bffhEKhl5fX5MmTTUxMli1bVllZWVdXt2TJEltbW0tLyxMnTowbN+6zzz5bt27ds2fP9u7du2zZMjMzM3NzcwcHBwsLiwkTJgQHB5Mk6evra2lpOXXq1KVLl5aXl8fExCxatGj58uVjxozZsWPH35nfs2fPf/7nf86cOfPevXu9mzoEgOtnEmkoOQA4nQecQCCorq62trY2NjY+ffo0i8VqaGiYPHnyyZMnX7x4weFwIiIikpKSLl26NGzYsKKiooCAgHfffdfV1bWqqio1NXX06NGBgYH19fUikejGjRsuLi70IJTL5aIo+uDBg6FDhzY3N9PI4/P5zc3NFhYWP//8c2VlpZ2d3eLFizMyMgYPHnz//v2wsLCPPvro9OnT2dnZQ4YMCQwMPH/+/MSJExkMRmBg4BdffBEeHs5gMMLDw2NjY0ePHn3x4sXnz58PGzZs06ZNxcXFzc3N69atW7NmTXV1NZ/Pnzt37ooVK4qKiqysrKZPn85gMNavX79kyZKSkpKvvvrq2rVrBQUFS5cutbOzCwwMHDZsWERERHBw8LBhw3JzcxMTE4cPH/748eOGhgaFQaqi7UYHA4DTEHH6OVoAOJ0HHJfLFQqFTCbzypUrQ4YM2blzp0gksrS0vH37tlgsFggEISEhK1asWLhw4aBBgxISEvz9/c3MzDgcDkEQ5eXlpqamubm5KIrSgzsEQRQgQFHU3d19yJAhCsChKJqRkTFq1KiCggKKosLDwydNmhQSEmJmZlZbW8tkMs3MzJKSksRi8dy5c+/cuXP+/PmlS5eSJIkgyMKFC0+ePFlbW7tly5bly5cPGTLkl19+qa2tNTU1jY+PJ0mSIIidO3fu2rWLJEkYhufNm3fhwgWKonbv3r1lyxaKom7cuLFgwYJ79+7961//WrNmzU8//WRpabl48WI3N7c5c+YIBILm5uapU6dGREQUFxePGTOmoqJCuTiKcqlyAgDXzyTSUHIAcPoAOD6fj6IoRVHOzs6mpqYNDQ0WFhY3b96kKOrJkyfDhg27fft2SUnJhAkTYmNj/fz8LC0tW1tbYRguKSkZP358bm4uSZJcLlexMkAjAIKgjIyMTz/9NDQ0VCKRIAgiFApzcnJGjRqVlZVFUZSPj8+kSZMePXo0ZcqUioqKxsbGKVOmxMbG/j0LZmVldffu3fPnzy9ZsoTm7Lx5837//ffVq1evW7eupqZm7dq1Bw4cqK2tnThxYmJiIgRBKIpu3bp1x44dEokERdF58+adPXuWoqidO3du3LiRoqirV68uXLjQ1dX1yy+/TE5OfiI/nj9/7unpaWlpyWKx6uvrzczMIiIiCgsLR44cWVFRgeO4KjjrHAYATkPE6edoAeB0HnAikSglJeXw4cM+Pj7W1tZLliwRCoU28iM6Ojo0NPSTTz7x9PT8e/j53nvv+fr6+vj4TJ06tbW1FYKgurq68ePH7969OyYm5u/Vg0OHDu3cubO9vV0xIOXxePb29kOHDr1y5crVq1eXLVvGYDAWLVr098pDTEyMhYWFvb19ZmbmV199VV5e3tDQMGHChOjoaBiGZ82adevWLRcXl6+++ioiIsLJyWnw4MGJiYlz587dtWtXfHz8mDFj/h6QVlVVjRs3Li4uDoIgHMcdHR3HjRsXEBBQVVX19ddfnz59mqIoBwcHOzs7iqIuXbo0e/bs8vLyCRMm7NmzJyEh4eLFi7W1tV5eXtOmTaMBN3HixLCwsJqams8++8zR0ZF+EXwvRqkAcP1MIg0lBwCn84CDIIgGh7m5+fr16xkMBoqi8fHx8+fPX7RoUVZW1p9//jl37tyff/55//79Li4ucXFxe/bsYTKZtKeFq6vrjBkzNmzY0Nra+ttvv+3du1cxB8flcgUCQUNDw6FDh2bOnDlnzpyTJ0+y2WwGg7Fu3TorK6tt27bV1taWlJRs27atrq6upaVlx44dOTk5IpHo0KFDkZGRLi4ugwYN+u677xYsWODl5QXDcHh4+Pz5821tbU+cOLF9+3YGg7Fjx478/Hyh/CgtLV2xYoWVlVV4ePjRo0e9vb0Jgrh8+fK5c+cIgggODj5w4IBIJIqLi/v++++tra3t7e2fPXuWkJCwd+9eNpvd3Ny8c+fOtLQ0GIYvX75sYWGxb9++trY2mtedzbRurgDAaYg4/RwtAJzOA47GkFAoZLPZMAzTvm8ikYh2CuPz+TAM074dMAzT1hkEQYq+DcMw7UfG4/FE8qODvSMQCOgZOnogTG+ZoOOkB63KXrUKt2EIggiCcHJysrGxEYlEQqGQTgiCIBqsKIrSCSkeoQtC55/P50MQRDuF0Lmi79I5p5dz29vb6WcFAgF9XdlvWblcisKqfgIA188k0lByAHD6ADi633YAk3JnVtxSnHR5V/lih/POD3a+0uERGIZv3ry5a9cumlMd7nbz51tjpp99a7C3Bug+D+CjMxqCTn9GCwCnP4DrprsOyC0ej8dkMltbWwck9T4mCiy4/sSQ5tICgAOA6yMKunucHvx2F0Jb7wHAaQ46/RkzABwAnLYyZkDzBQDXnxjSXFoAcABwAwoSbU0cAE5z0OnPmAHgAOC0lTEDmi8AuP7EkObSAoADgBtQkGhr4gBwmoNOf8YMAAcAp62MGdB8AcD1J4Y0lxYAHADcgIJEWxMHgNMcdPozZgA4ADhtZcyA5gsArj8xpLm0AOAA4AYUJNqaOACc5qDTnzEDwGkR4NhsNv1Sb/qjBzr6Xz0oAu2fnJOTU/+ijsCR/uyQIC31KgAApxWA4/M4UY8fp6amZmbo/JGSkpKenq7zxcjIkL0QuP45AJx6idPPsQHADTzgUESEwMLWlsaG+qSuYhYAACAASURBVOeNDbr9r6H+uduD+8XFhS1NDTpdlob6582N9SIhr587JEhOvQoAwGkF4FBEhGMwgcM4ptv/MBT29vJsanwhleA6XRa6LtTb2UBs/a8AAJy2AK7/614TKSKwyNvLs6G+jiRQTcQP4gQK9EgBADgAOHUqAADXo+4HAmtaAQA4dXZvTdeW9scPAKf9dWRQOQSAA4BTpwIAcAaFD+0vLACcOru39te3pnMIAKdphUH8PVIAAA4ATp0KAMD1qPuBwJpWAABOnd1b07Wl/fEDwGl/HRlUDgHgAODUqQAAnEHhQ/sLCwCnzu6t/fWt6RwCwGlaYRB/jxQAgAOAU6cCAHA96n4gsKYVAIBTZ/fWdG1pf/wAcNpfRwaVQwA4ADh1KgAAZ1D40P7CAsCps3trf31rOocAcJpWGMTfIwUA4ADg1KkAAFyPuh8IrGkFAODU2b01XVvaHz8AnPbXkUHlEAAOAE6dCgDAGRQ+tL+wAHDq7N7aX9+aziECC71k74N7Dt4Hp2mpQfyqKAAABwCnZgWCggIaXoAXXqpZVVU6MwjTWQEAONAQ1akAjkIhIUHVVU+BBde5s4Er/a8AAJw6u3f/15+2pYij0MOHgVVPKwDgtK1qDDM/AHAAcOpUAADOMDmitaUGgFNn99baau63jAHA9ZvUICFVFACAA4BTpwIYCgWDISqiTklV6cYgzJsUAIADbVGdCuAY/DgyorSEAebg3tTlwPX+VAAATp3duz9rTgvTIgmUosQx0VElJUUUJQGM08I6MrQsAcABwKlHAQyFamuqS0qKPTzcH0c+Kikpqa2pxjHI0HoUKK9WKQAAp57urVWVOiCZEZOYq+u9TZvst23btnXb1s2bt8TGxkjE2IBkBiQKFKAVAIADgFOPAmISLSoq2L59+5YtWzZu3Hj8+PF2DhPHYNDTgAIDqAAAnHq69wBWoZYkjaGy0ej1a9c2bNiwefPm2NhoYL5pSdUYcjYA4ADg1KaAmMQqyku2b9t+7NgxHpcDzDdDJouWlB0ATm3dW0tqdACzgWMwAgmuX7saEvxQKiEGMCcgaaAArQAAHACcehTAMRgS8TMz0zMzM5OSElmsNgJHQDcDCgysAgBw6uneA1uLA546Tbe01JSioiKRSFRTUxMfF8ditgDGDXjVGHgGAOAA4PqqAI7BIiE/PS21sLCIz+dzuVyBQFBdXR0fH8dmtQLGGThiBrb4AHB97d4DW38DnjqGQpCIn5aaUlhYKBAIuK8OgUDw7NmzuLhYJrDjwNbUgVMAAA4ArvcKyG03Xnp6alHRS9vtFd9k/xcIBFVV1Qnx8SwmsON6L/KA/4bpdAYA4EDL66UC8nk3Xnp6WlFRkbLt9u+ME8rtuDhmWwvYmqrTpNDRzAPA9bJ762h9qyvbtO2WliZbVaDn3ZS5pnxOj1Xj4+OAHacu8UE8qisAAAcA12MFXq6ZylYV/m3eTZlryueK+TjAONV7JgipFgUA4HrcvdWiu+5GIrPdRPy0tNTCt9luHRhXXV2dAOy4gZtu190m15ecA8ABwPVAgVcj05e2G4/HU6ZY9+e070hcXAybBfzjeqB5X7o3eBYADjQ1VRXAUEgkkq0qFBYWdj/v9ibS0Yx7ZceBF42oqjzgVK8VAIADjUwlBeh5t/Q0mUeIQCDoke2mzDs5457J9zkA3xGVlO913wYPoogIAA40srcrQHvzpsp2YjHe5BGiTLHuz2VrDjU1Mh/gtmYCB3bc2/UHqOq1AgBwoHm9RYGXtlu6bN6Nz+f32nZTpp5iLxdYV+111wUPqqIAANxburcqIupxGJpuctvtjd68yuRS/VzhH8cE+xzA0qrGFACAA4B7owKvbLeXexXUYrspE1C+l6sqPg7syX9jFejxb2f/FA0ADrStrhV40y56ZUL1/VzhA8xsA2sOXVdE/4BAX1MBgAOtqgsFut9F33euKcfw0nckAezJ76Ii9JU7/VYuADjQqjoqIBuZCmXvCJG9303pDUjKVFLv+cv5OPm6KkmA9wB3rJF+w4H+JQQABxrTvynwaq+C7P1uvfPm7R37XvrHgXdkamy6Xf/gpUqJAOD+rXurIpkeh6FXFdLe8H633pFL9aeEQvrdSrHAd0SP21g/Fw0ADgDupQIv593ku+j77s2rOteUQ9J2XEJCPAvsVwWmnDoUAIADgJMpgGMwLHr5XYW+7MRSplXvzoVCYXV1dVwcsONAy1SDAgBwahCxn61utSdHe4TIdtEXFfL5r7+r0DtC9f0psK6q9io22AgB4AwdcK+8edW5E0tdjIsDPsDqGKYZLN3AZntDp5vsDUhCXlpqqlp20feda8oxyH1HauLj4+R78oHviKG31d5hGlhwhttuXtpuaS/f76b2nVjKtOrduWys+kz2biXwfdXedW/wFACcgQJOaSeWmnfR945lb3pKYccB3xFAq14oAABniIBTzLvR38TSQttNmXcv9+THxwM7rhc93MAfAYAzOMC92meaVvjm75kq80UbzhV2HJiPM3Bg9bT4AHCGBTgZ3WTfxJLtxBoob97eEZP2HYmPj2OD98eBpVWVFQCAMyDA4RgkEvLTZP5uWj3v9iYCvtqTH8digu9yGVC77anVphweAM5QGop83o1H2279uYv+TbTq3fVXPsBgXdVQ2q0yrXpxDgBnEA2FXlWQfa1Z10amnTkoUNrLBd6t1Is+b1CPAMDpP+Be76Lv3zcgdWaTuq4o7DjgO2JQtOpFYQHg9Bxwsl30kCBdL2w3ZT6+3JMfC/bk63kD7gXUlB8BgNPn9iG33fhpqSkMBkN3592UuaZ8/nLNQbaXC6w56HMzVgZWT88B4PS2ZbzaiZX6RD7vpuXevMrkUv2cHqvGxcWBsWpPe76BhAeA00/AvdyJlZYi36sw8G9AUp1ZPQ1J23EJ8YBx+tmS+whiADg9bBa07Zah8rfoeTweDMOo/BAKhT1FjIbCi0QiOktvdUh+6QMs25PfRuDgvSN62KR7jTkAOH1rDQrbTUVvXh6PJxQKU1JSLl686OrqWl1dLRKJNMQs1aMVCASpqannzp27d+9eY2PjWycQFfNxwAe41yzQywcB4PQKcIp5N9kX//h8VebdIAi6cePGsGHDbGxsJsmP/Px8CIL4fD6CIBiGIQjCkx8wDNN/CgQCkUhE23p8Ph+GYR6PB0GQIjzNIwiCMAxDUZQOKRAIFGEUdqIijEgkohPicrl8Pp8kyUuXLm3cuHHcuHEHDx6EIOitcHy1Jz+WxQLfkNarVt0X8gLA6U9ToPeZZqTL3u/21mEdzQuhUFheXj506NArV65gGNba2jp//vwffvgBQRA2mx0aGnr58uXw8HAmkykSiVJSUq5du+bj41NXV5eamlpQUABB0PPnzyMiIphMZkJCQkhIyLVr10JCQlgsFp/Pz8rKunbt2t27d6uqqiAIYjAYGRkZwcHBN2/erKioEMqPnJyc69evu7u7FxQUhIWFNTc3C4XC+vr6kJCQ1tZWiqKOHDkyf/58kUikCqwVdhxYV+0LFPTpWQA4PQHc6+8qqEw3LpeLIIiPj8+oUaNqamogCCII4vbt22PHjm1oaPj555/Hjx+/cuXKBQsWVFdX37lzZ/To0StWrLCysgoLC7Ozs3N0dKQoKi4ubuzYsdXV1dbW1iYmJra2tkZGRkePHuXxeHZ2dgsWLJgxY4aNjQ2Xy7106dKwYcOWL18+adKkb775hs/nBwYGmpiYLF261Nra+uLFi9OnT3/w4AFFUXfu3JkyZQqbzS4oKDAxMXF3d4dh+K0WHB3g5XxcfByb3YahkD71VVCWXigAAKcngEMRUXp6an5+vmL0pwoRUBS9cuXK1KlTGxsbBQIBiqKBgYETJkxwdXU1NjbOyMjAMIzNZldVVX311VfXr1/HcZwjP1asWKEA3JgxY6qqqqysrG7cuCGVSn19fY2MjCorK+vq6mJjY8+ePfvPf/7zyZMnFy9etLCwEAgEmZmZo0aNyszMnD179rFjxzAM43A4fw97Dx48uHDhQhzHFy9e/OuvvyII8v333x85coQeAqtSHDoM/X3V6OgoHpcDGNcLKOjTIwBwegI4DIVKSxgpKSlsNvutU/IKWCAI4uvrO3LkyOrqagiCcBy/cePG5MmTT506ZW5uzpcfOI6np6cbGxszGAwIgoRCoUgkWrFixYkTJyiKSkxMHDt2bFVVlbW1taurK0VRZWVlX331VVxc3O7du2fMmLF+/fqPPvooIyPD2dnZxsYGw7DS0tIpU6YEBwdPmTIlKSkJRVGarampqaampmFhYZMnT05LS2OxWEuXLn3y5IkqE3CKEvF4PD6fX1BQkJWVAYn4AHD6RKtelAUATk8AhyIiAoNLS4qTkpLoKTBFn+/mRCQSlZWVffHFFxcvXiRJsqWlZfbs2Rs3bnz48OGIESOKi4sJguBwOKWlpaNHj/b29haLxRwOh8vl2tra7t27l6IoPz8/Y2NjZcD5+fmZmJjcvn176NChZWVljY2NX375ZXp6+sWLFxcsWIAgSElJycSJE2NjY83Nzel029vbmUzm3xOCtra2Y8eOXbJkCT3jFhISUlZWpjqv5Wsh/JycnKzMDBQRAbr1ggh69ggAnP4ADkNl328uKWEkJydzOBwVuQBB0F9//UXPjpmbm48fPz4vL4/D4SxbtmzatGm7du2ysbFhMBhOTk7Gxsbbt2+3sbEJDAy8evWqkZHRjh07Jk+ePGLEiOrq6nnz5pmZme3evXvEiBGHDx8uLCw0MTHZtGnT2rVr33///Vu3bjk7O8+fPx9BkOLiYhMTk9zc3L+XF4yMjLZs2fL99987OztLpVJ3d/d33nnn+vXrYrG4trZ2+vTpBw8eRBCkG0YrbtG2W35+flZmBgILAN30DFW9Kw4AnP4AjrZZCBwpLWEkJSWrOFal/eCioqKOHTt26dKlyspK2gWkqanp9u3bjo6Onp6ebW1tfD4/KCjo+PHj169fr66ubm9vd3d3//PPP6OiogIDA5uamqysrNavX3/27FkfHx82mw1BUGJiopOTU1BQUHR0dFhYWH5+flhYmEAgaGpq8vX1ffHiBQRBkZGRTk5OLi4uDAZDIpEkJiYOGjSopKQEgiAWi+Xp6ZmSkqLKijBNt9zcXDndhIBuvcOB/j0FAKdXgJM3UAiXjVVldpyKjONyuZ13MvD5fEx+KPzgaDc3esqMx+PRf8IwTBAEm822tLR0c3OjKErhzkb7uCEIAkGQSH7Qi6E8Hg9FUdrApH3raPc6T09PU1PTQ4cOCQQC2vMOQRBVvI7pwHm5udnZmTAEbDf9a9K9LxEAXO+109qfOwyFCBwp6Ykdpxjo9eKEx+NxOJzr169nZGSowqMukxAIBP7+/tevX2exWKqYbIpIeDyeQCCQ227pCAzm3fSwPfelowHA6W2DoO24lBSZHaeKl6wCGb07EYlEPQJT51SEQiGCICpOHdKP0yPTvLy87OwsBAYjU71tzL1mHACc3rYJDH05Vk1MTFR9rNqZOype6QeGds4Jn8/Py8vLzEhHESGOwb3uBuBBfVUAAE5vAUc3WQKXzcfR/nEDwqDOVFLLFXreLTc3NzsrA4EB3fS8GfeavwBwet4y6Pm40pKiHq05qIVBmouEx5NtyM/NzcvMTEdgAY6BLVl63owB4EAFv1EB2VgVl/nHpaSksFgsXbfjXttu8nk3MDLtdec3hAeBBfdGLuhT9b+y4xhJSUn9MB+nSdtNthOLnncDqwr61EQ1VBYAOIMAnNwHWETI7TjdHat2tN1QsKpgKK231/gDgDOsJiLby1Xcg30OmrPFehoz7RHypKBAPu8GVhUMq90CwIH6VlUB2V6u0mLdsuNouuVk5yQmJBA4QoIPLyCqVnev0aAfDwILzuAayiv/uOLkpB7sye+pwaXG8C93YuXlZaanRUSEx8REtbU2kQQKvi+jHwzSaCkA4AwOcHR7Ign0aUWZ9q85KO+ixxBIJORlZ2f6+flERITX1lQROELgCNhar1FG6HTkAHCGCDgxiYmEvKSkhLt37qT05N1KarTLVInq9U6srJc7sTAUEpMYj8fJy83y9HQPDg6qq3tGYDBJoDrdD0HmNaQAAJxhAU42gUUg5WUlbm4PwsNC2znMstLiZK30HVG23Tq8vRLHYDGJCQXc7OxMD3e3kOCgutpn9NwcsOY0RAodjRYAzlAAh6EQSaBtbU0hIQ+9PD2qq5/S01gv9+TL362kVT7APLm/W1ZWBvyGXfS0NSfgc/Lycnx8vMPDQ+tqn+GyYoJvPxtKq34rdgHg9L8pyEGAwpAgLS3F1fVuRnoqAgsVY7pXPsBFWjUfJ9uJlZeXKX/zePd7FfBX49PSEkZQUGBYWGhdbTV9EVhzb+3/eh8AAE7PAYdjMIEjlU/LPT09IiLCWawWMYl17vn0e4BTUpIHfC+XYs00OysTgXrg7yYmUQQWVlSUBgUFRDwKr62plhmtwKHEsB1KAOD0FnAYCknEOJvVGhoS7OnhXl31ckza5Y+2fABLv+s8ic1W9XsOqiwU9DSMfBd9bqbsuwo9oBtdKHoYjqFQRXlpQIB/eFhIXW01gcsm7DozvUsdwEU9UwAATj8BRxKyMWlmRpq7u1tWZjok4ivGpG9uwRBBf7Omv96R2YF9r2y33OzsLLgntluHEtGYQxFReXnJw6DA0NDg8rISxcUOgcGf+q0AAJy+AY72mXhWXent7RkeFtrW2iwR4yraL6/fdZ6czFb5u1wdONW7P+k3j+fn59M7sVTMcDedkyYajkKlxUUe7m5eXh5Pn5bRy699j7ybdMEtrVIAAE5/AEevKrKZLY8fP/Lx9qp8Wt47d38ck41V+3Mvl2IXfVaW7Hum3a8q9Kj/0JrgGFRWWuzp6eHr611RXqpYl+hRVCCwLioAAKcngJOPQIV5udkPHtxPS02GIYEKY9Kuyy6342R78mX+cRx2jz6S0AvzjfZ3k9luGRkwJFAj3RQdkl5Hlr9oQGbNeXt7VVWWA2tOoY8enwDAdd3JdajKaXvkWXWlr49XSPDDttZmtcypv/yGtHw+TnOMU/bmRWB12m6da5C25jCUtubcfXy8ystKXjqUGPZSY2et9OYKAJwOA47usRwOMzIi3MPdray0mCRkezPV1ToV71biaGY+7tWqQl52ViYM9d83sWQ/AIiotKTI18fL09PjaUUZLtvgATZ76XBfeFObB4DT1UqlN5nn5mbdvXsnIT5eJOSJSVTt0+dy/ziNvFtJsc+U9uZVe87f1OLp6y/n5lCotITh4SGz5ioqSuT72NSvYfc5AXc1qgAAnO4BDsdgCYnXv6j18vQMDPRvanyhljFpl+2MfrdSSTGD/r6qusaqCrrlZGcO7JvHxSSGIqLSUoaPj5cXbc292hrRpSDgom4pAACnS4Cj7Q6hgBsbE33v3t2Cglza6NBom3vtO6KmPfkKumVlZSBI/41M36TSK2sOLi1leHjIliAqykuBNfcmuXTrOgCczgCOfvdZWUnxgwf3Hz+OaOcwaeujHxrcSzuuhJHcZx9g+ot/+Xn9Pe+mikq0nmWlxd7enl5eni/3tKpvTlOVPIAw6lUAAE4HAEdvumIxW0KCgzzcH1RVVYhJjOjfD7kr7DiZf1xv1xxerZnKvmeK9nwnlnqbfpex0dYchkLFxUUPX23dB9Zcl1rpxEUAOG0HHIEjCCzMyc5ydb2blpqC9MHBre8tksAR+vuqbDa7p+9WUl4zHdh5N1V0eLl1v7z04cPAiEfhdbVg676295QuqxUATnurjfZEbah/7uPtFRDg39rSqLnFhC4bR+eLtB1XWiL7vmpPfUde7qLPSO/FLvrOOemHK0pb90sCAvzCQkOe1z0j5S9J74fUQRJqUQAATksBRxKoUMBNSkpwd3NjMJ7Qbz1SS5X3MRIZ417uyU9R0Y57abvl5tJrpprYq9DHQnXzOIaISELmO5Kfl+Ph4RYWFtLS3CgmUd0qRTcF1O9bAHBaBzi54YZWVVV4eLhFRUfyeJwBN9w69AHFfJyK78jk8/nynVgy262f/d065LzXf8rm5uQ/OTk5md7envHxsSym7M16anSr7nXewIPdKAAAp12AE5NYO4cZGRnu4+NVU1NFEtpqKaCybVWlJYyU5O7suA7zbrpu9dBLEAJ+e25Olq+vT0zMY3reQNfL1Q0gdP0WAJy2AI72AikuLnxw3zUxIU6+M0Hmg6q1/xTzcclv/i6X3HYryMxI78v73bRNATnmUAGfm5gQf/vOrejox0xgzWlrQwWAG3iC0HYBs6354cNAH2/P+he12jYm7QYxMjuutIu9XErevLK9Cvpn49BLQDweR/b1xbt3oqIi21qbJGJc/0raTe1r/y0AuAEGHL16UPgk/+7dOxkZqSgi0rlpHfl+1SJlO05BN/kueoGOzrup0ntpF0Uul52cnODqejcy4hGzrVkixgDmVFGvH8IAwA0k4OgZt/CwEF8f72bZ2pyufjqAwGXzccnJsm/W8OVHXl7eq7dXQv3Qjgc2CdnuYDHO43ISE+Lu3b0bEx3FYrUCzA1spdCpA8ANDODo15CVlRZ7eLhnZqbpouHWofm+fH+cnHH5BQWyb2Lp7Jpph6Kp+CdtzbVzmCkpSb6+3snJibLtdCq/L17FVECwHikAADcAgBOTqIDfHh0V6R/g19jwQiLWVcOtQ1MjcKSstDgyMjI3J9vQ6KaQgrbmuO2sx48jPDzcCgryYJFAd21zRbl09AQArl8BR6881tZUeXl6pCQnwpBA52bcumnodOkSExNKihli0qDfH4ljEEmgzc0NkRHhbg/u5+fniIR8sdxhuBsBwS21KwAA13+AIwnZl4kTE+JcXe/W1lTr5a+6mMSSEuMz0tP67U0nau8SaoyQ3qX/4kVtYKDfvXt3c7IzYUj2/UY9XnVRo3pqiQoArp8AJyax+vo6by/PyIhHfD5HX1+QLSaxxIS4zIx0ADhF/6Qx97zu2cOgQHf3B8WMJxr6to4iRXCiUAAATuOAoz14c3Iy79y+xSh60rtP+SkqTMtPaAsuOysDAE65puh9+ySBvnheGxLy0NfHq7b2GUmgwJpTVkkT5wBwmgUcSaB8HufRozBfH2/6e1eaqEXtiZMk0NSUpMIn+fpqovZRavpLGmVlJf7+foGB/jU1VdrzGoU+Fk07HweA0xTg6P0JL57XurndT0yMN5B2TOBIVFRkYSEAXHftiiRQGBLk5eXcd70XEODX0PBcezcda+seLBV5CgDXXUNUUcTOwXAMxlA4OzvL3f1BVWWF4YxECBx5HBkBANe5SXS+QhIoJOI/Kcjz8vKMiY7isNr0ct2pc8H78woAnPoBRxIyN7ew0NCw0JB2DsugHCYA4Hrae8UkxudxUpKT3B48iI2J5razDOfnsKda9SI8AJyaAScmMdk7eH28MjPScAw2tD2JAHC96IT0EgSL2fL4cYSr672MjDSRiAcmMXuhZOdHAODUBjh60q20hCH/WHqJYf4OA8B17mMqXqHbT1trU1RUpI+3dzGjUA828KlYds0FA4BTD+AIHMZQSLYJUbZa2mSwThIAcH3sq/Ri1LPqSk9PD28vz8qn5frtV9RHud76uAYBx2AwnJyc7F8dxx0d8/Jy3pohXQwgn3TjhAQ/fBwZIRLy9Gn3VU+rAwCup4p1GZ7AERxDKipKA/x9Q0NDmpvqwTJrl0K96WJeXs5xR8dX7LF3cnJiMBjU24533hbg9X1/f386dgcHhx07djg4ONB/ent7vSlPOnpdIsZbW5o83N3SUpPl7RLW0YKoJdtywD0CfnBqEZP2JklNSXJ1vRsTE8VtZ4NlVlWE9fb26hI+/v7+rwnV1ZmqgGMwGHQCMTExinhiYmLoi/pkx4lJrKKi9N69u8XFhaDxyeaMMDg25nFZaTGYI1elK6oShvYVT0yMc3O7n5WZLhKC9YfuppXy8nK6gU/3dpyqgKNHpsp0ozFHM+64o6Mq9arlYWQv/5LgOdmZN29cr62plohxLc9w/2QPlwEuqqpSNnPUPykaQir0MmtzU31wcJC3t2fl0zIDXKBXsaLpkemb4OPk5KQwuTqfqAo4e3t7BweHzs9TFLV161Z7e3sV86q1wegGl5KS6OHuxma1gc6sqCkMhUKCg6qeynybFRfBiVoUkL0kFUfKy0s9PNxDQ4PbWpvUEq2eRfJW+HTJJfpiDwC3Y8eOLiM6c+aMrgNOTjckLjba29tLKOCCnqzcQ3AUevgwEABOWRM1nhM4KpVKSJIoKyt7+rQCJzAxSYjFA/SPJLTwvU/29vbdw6dLLvUYcG+y4OjVBjVWeT9HhaEQhkJRjyNDQh6Cl950Fh8ArrMmarwiFpNSqbSbLtqft6RSqXYCrnv4dCORqhacvs7ByXeYQo8ehT0KD8NQyNB2KajSUQHgVFGp12EA4N4qXX/MwenlKiqOwQgiCg8PjYuNpkn3Vq0NMAAAnEYrvTPgBAKBUChUl1knlUrFrw6JREJHi2FYh/gVV7TQguuPVVSKovTMD4421kJCHkZHPwZ066YPA8B1I07fb3UGnKOj4+XLlzsAqJtRWDe3UBR1dHRcJj/s7e0bGxulUqmrq6uNjc2PP/5YVFQklUorKirWrVtnY2Nz9epVgiC0cxCjcT84WkS92clAz7uFhMg2KpA4ooW/Wn3vOeqKAQBOXUp2GY9EIpZKpST5eiZu7dq1v/76a2fAicWykBRFKQwxuldK5QdFUYoACuQJBAJzc/Pdu3cHBweHhYXBMBwZGTl27Ni7d++uWrVqzpw5DQ0N8+fP37hx4/Xr1z/77LPQ0BCpVNxlPgf8osZ3MihUoyhKp5dN5V+KgsPDQ8PDQ4Hz0VsbLgDcWyXqdQAcg7nc9t9++83Gxuann3568uSJVCp1cHCYOnXqqlWrNm3aVF5eLpVK29tlIrY6JwAAIABJREFUYRYvXrxv3762tjYPD48rV65IpVKCIE6fPh0fH9/a2rpv377FixcfPHiwublZAUeBQPD111+fOHEiMTFRIBBIpdJ169bt2bNHKpU+ffp0xIgRt27dGjduXEtLC31r3759Wgs4hcga3IuqYJxOA04ixjMz0vz9/MCqgqLRdHOCo1BwcNCz6krgPdONSr27hWMwp51z6tQpb2/vH3/80dramiTJLVu2zJ4928vLa/ny5ZaWljweb/v27XPnzvX391+4cKG9vX1QUNC4ceNaW1uLiopMTEzy8/PXrFmzYcOG0NDQ5cuXr1u3jiAImnFCoXDBggWzZ8+eOHHivHnz6urq5syZc/v27b8x2tzcPHr0aDpmGIalUunRo0d/+ukn7fdvB4DrbtsHSaAV5SX+fr4Cfrt2Tjf0rqto9KnQ0OCG+joAOE2ILJVKs7KyDh06tGjRopEjRwoEgs2bNzs6Okql0sbGxokTJ/r5+U2fPj0mJkYqlWZkZEyaNKmysnLOnDm+vr5nzpzZtm1bYWHhkCFD6KdWrlw5duxYJpNJA04sFpeVlfF4vIqKiiFDhvj4+MydO/fu3bt05GPGjHFwcJg7dy4NuMOHD9tvsgeAk5lxOmrBiUm0seGFq+u91tYm0F1V7K4ILPL28gSAU1GuHgUTk1haauqECRPOnz9/6dIlExMTLpe7efPmY8eOSaVSgUBgYWFx584dc3PznJwcqVT65MkTU1PT58+f3759e86cORYWFpnyY+jQoRcvXrx79+69e/cePXqEoqhilKoYdU2bNu3evXvLly93cnKih6gmJiZ//fXX+PHjeTyeVCrdsGHD4cO/SKWSHhWh/wMDC65rCw7HYD6X7e/nW10Fdh11LVGXjRUArktZ1HJRKiWdnS+amZnx+fwHDx589tlnTCZz06ZN69evb2tru3fv3oQJE2pqahYsWHDo0CEmk3no0CErKysURRsaGoYPH25tbU0QRFNT05QpU65evSoQCBgMBovFUtANw7CoqKjKysqwsLDPP/88Ly/vjz/+mDBhQkVFxW+//fbtt98+efJk6NCht27dys7OHj16dGRkhFRKqqVomosEAK6L3oshIhxHQkIeZmdlSMEu+p58VwkATnN9lcCRZ8+q58+fb2FhYWtrO3PmzOjo6JMnT06dOnXGjBmTJk3y9fWVSqWZmZmWlpbm8iM1NZXm19GjR93d3enzqKioyZMnm5ubz5gxIykpSQE4oVC4ceNGExOT0aNHnzp1SiwWt7S0rFy5ctSoUTNnzszOzpZKpXfu3DExMRkzZsyxY8cwDMNxRHPlVUvMAHBdAE5MYvn5uYGBASgiAk4hPWpnAHA9kqungaVSKZvNLi8vFwqFbDabw+G0t7e3tbU9ffpUeT2UDqOYXKMoSigUIgiiYFlbW1t5eXlzc3MHZxGhUFhZWVlXV6e4DkFQZWWlclT19fU1NTX00oT29w4AuI6AIwm0uanh/n1XFrOFwA367ZU97X4oIgKA64Voqj/S2dFXMWvW/yfauRe1g5gAcP8GOAyFEFjo6+tdkJ9nsN9V6NBEevQnAFyP5OppYAC4nioGAPdvgJN5vWWmBQT4EWDHQk+m3hTNDgBOIYUmTgDgeqoqANxrwBE4zGa33b/v2tLcALzeetqS6PAAcL3TTdWnUBjDEBxHe/0PRaCU5CQerx3vWzyyDGA6sG0RAO414MQkGhUVmZycCAanqva3TlYeAFyvpeufB0kCCQ8LYRQVGMi33wDgXgKOwJEXz2vc3d3ApoW+9DQAuL6o1w/PEjiSk5OVkpwIANd5WUbVF152eFL7dzLId9QjD4MCi4qeAPOtL90MAK4v6vXDswSO5OflxsZGk1rvwqYWNYAFJ7PgSAJ9Xlfj6+uNwEK1yGqwkQDAaXnV04CLA4DrYIXJ/9RbC44k0Ojox9nZGcB862P/BIDro4CafhwAriuyvbymn4CTvYWG3eb24D6b3QYWT/vYwQDg+iigph8HgDM4wIlJLDU1OTLikZgEn/J8vabcu54GANc73frtKQA4wwKcfOuCyNPD/XldjYGsK2m0LwHAaVTevkcOAGdYgCMJtP5FnZ+fDwwJtH/ncN/bt6ZjAIDTtMJ9jB8AzrAAJyaxjIy0xIQ4sLzQx55DPw4ApxYZNRQJhkJSKVH4pCAxPlb2kQYD8BQxdDcRDHxDoNNuhL70LgC4vqin0WdJAk1LTb5w4cLvv592cjrufPGCj4+3SMjTaKIDHrlBAw5DIRaz1c/PVyTig/GpWtoiAJxaZNREJCSBFuTnbdy40d7eXvYe4J/WPwwK0PuP/Bo04OTflCmNjn4Mxqfq6lEAcOpSUkPxXL1yhQbcb78dbW1p0vvfdYMGnJjEEhPj8/NyAODU1Z30D3D0Z7/14r8iMYkxigq2b99hv9H+0aNQRbPXi9JBXbZhgwYcjsFBgQF1tdWGMNvaZfWr/aL+AQ5Fuu45apeu3yK85OL8yy+/NDfVG4Jbu+ECDsdgHpft6enOYbfpvaHeb51HnwCHYzCzrTk5KSktNTUtNUUP/qWmpmSkpwcGBri5PZAXR0/KlZaakpyUVFf7rHNHNlzAEThS/6LWx9sLgYWddek3IuhZQvoEOAJH6mqfpaSktLS0NPb1aGps1JJ/jc3Nza2trU1NTa/KpCUZ6302mpub8/PzCwsLOtukhgs4MYmWljDCw0LB+FSNkNUzwD2vq8nOzhYKhTxwaLECAoGgrKysmFEIAPd6r6WYxHKys2QvxiLAFtTXsvQRdnoJOIFAwAWHFivA5/NLS0sB4P6tG8v22Kckp6YkScRYH3s1eFyhAACcFnNAb7MGAPdvaKN7I0mgMTGPnxSAzwN2IY4CWD09AYDTW4poccEA4LrowzgGh4YEV1VVgCFqTynWTXgAOC3mgN5mDQCuC8BhKOTn69PY+AIsMnQDrJ7eAoDTW4poccEA4LoAHIqIfHy8WpobAOB6SrFuwgPAaTEH9DZrAHBdAA6Bhe7ubm2tTQQOd9NjwS3VFcBQkUxVtwf1L+r0YOAv84OTu4mAVVQtR6O+AQ7HEILA+voPx/Lz80UigZjE+xgVjiGqU0BzIQm8z5r0TVWSwAmZqnlcbrtYTPRR1b4/jqJ92mUFAKflXFNkT98AR5JEN6/l7P9bYpLQHLZUjhmSSqT9X3atTVEqlWJon2xzADgFQbT8BABOs91QawAn0Ww5dSp2ADgtp5Ias6d/gMNJkpRIuuvPEomEIPrJ0NMSwElIMUmSOkUhzWZWdy04+NWBIAifz1cjC9QYFY/HgyCIx+N1iJPP5yuu83g8GIZFIhGCIPRUplAohGEYgiAYhukHFX8KhcIOUan4p14BjsBRJrNtyxaHkpKSbvrHkydPtm7dyuVyuwnT/a34+PjExEQ6TF1d3b59+1avXh0UFCSRSMRisa+v7w8//HDw4MH6+nqpVKLyQLKL5Q61PCuVECnJyTt37sRxvJtykSTJZDK7/23o5nEVb7W0tHh4eEAQRFEUiqLXrl2ztbU9ceIEXR2lpaU7duyws7N7/PhxhwijoqLWrVu3du3ayMjIDrfEYvGdO3folzXu2bPn+fPnFEXFxMSsW7fOweFlY+ByuX/88ceqVaucnZ1hGO7j+vhADVH5fL6fn9+aNWtsbW2vXLnS1tbWGSIq9nzNBePxeHV1dadPn66trVVGMIIg1dXVt27damlpEQgELBbL2dn5+++//+WXX54/fw5BUF5e3pYtW1atWuXv7y8UCtvb22/fvr18+fLdu3dXVlYqR6V65vUKcCSJNTTUT5o0KTs7u0MfUP4zPj7ezMystbVV+aKK5wRBPHjw4OOPP/7rr78oiuLz+TY2NnZ2do6Ojp999llubm58fLyxsfH58+fnzZu3cuVKCII67/JVC7ZUj4SiJAEB/hYWFiiKdlPMhIQEOzs7DMO6CfOmW1KpSnN8BQUFlpaW5ubmAoGAoqjr16+bmpq6uLiMGzfu8OHDIpFo5syZmzZtOnTo0MiRI4uLixXJMRiMcePGOTs7379/PyoqqkNyOI5/8803tra2bvKjvb29uLh45MiRJ0+e/OGHH+bMmcPhcI4cOTJr1qy/Yxg6dOjly5cpqRjrwxcn+g44oVCIIAhtjYlEIlV6LARB3t7ew4cPP3jwoJOT09ChQ/ft28fn8wUCAW3pQBAkEAhoy0gRs0AgUJg/IpFIEV4RgMvl0qYTfYXeOE+bUZD8UL5CJySSH3Se6TiV848gyIMHD+bPn89kMhX85fP5mZmZlpaWU6dObW5uxjDs0qVL48aNO3funImJya5du5qamszNze3s7Pbs2TNs2LCcnBw/Pz9jY+MzZ86YmZn9+OOPXC5XEZtyct2f6xvgGhsbp06dumbNmh9++OHGjRswDFMU9ffvw6FDh1atWnX16lUEQZKTk2fMmNHW1kZRVGpq6gb5Qb/65ujRoy0tLRRFRURE0AT08vLy9/dX9LS0tLT58+cPHz7c2dmZoqiEhIQRI0YwmUyKopYuXfr7779v2bLl0KFDFEXl5eUNHTq0srJC8XJU1ZGk3pAUJQ4LDTU2Nt6yZcv69euTkpLo4iQmJq5bt27Dhg2JiYkYhm3YsOG9997btm1bfHz8+fPnS0tLKYpKSkqqrKykKCo+Pv7mzZskSXp7e9va2m7fvp0OwOVyz549u2zZMicnJxaL1draev369cuXLy9btuzatWvKuEQQZM2aNdOnT7e2thaJRCRJTp8+/fbt2xRFubm5zZw508vLa+rUqTwe7+96sbKyunDhgkL2qKgoU1NTujZPnz6dkJCguEVRFEEQNjY2Tk5ORUVFtG24f//+VatWURTV1NQ0fvz4oKAgU1NT2uj+448/bGxsMBTuyw9PHwEnEomCgoKuXLmya9cuW1vbpKQkZcbRuEEQBEVRxWCNz+e3tLTMmDHj6NGjYrFYIpH4+/t/+umnRUVFHA7H2dl52bJl9vb2mZmZfD7fzc3N1tZ29erVsfLDxcWFy+UymcwzZ84UFBT4+voeOHBg9erVGzduzMjIgGE4NDR09erVS5YsefDgAQRBBQUFf/3118mTJ5csWXL79m2+/AgICLCzs/vhhx+8vb0vXrwYHh4OwzCTyTx9+nRKSoqyu8zfL/CgLWUEQWj68Pn85uZmOzu7qVOnWlhYtLa2cjgcCwsLZ2dnqVTq5uZmZmZ2586dsWPHvnjxAsOwWbNmnT59etmyZUePHpVKpREREaNGjSotLVWQunuoKd/VQ8CZmpo6ODhcunRp1KhRf/75p1AoXLhw4datW318fKZPn37u3LnMzMwZM2ZwuVwGgzF69OgTJ06cOnXKxMQkLS1txowZXl5efD5/5MiR7u7uMAxPnz7d09NT0Z24XG5LS8uSJUvOnTtHUdSDBw/MzMwQBKEo6sCBA1u2bPnuu+9cXV1pqhobG2dnZUolA7yQSlHi8LCwzz//3MXFZd++fcOGDcvPz8/JyZk6deqVK1cuXrxoYmKSmZl54sQJIyOje/fuVVdXf//998eOHZNKpZaWlseOHVPg29PT08LCwt3d/cCBA5aWlnV1ddu3b1++fHlgYODSpUu3bt1aVlb28ccfb9++/cKFC0OGDImLi1NIRxBEY2Ojp6enlZUVDMPNzc0TJ06kaZuUlDR79uyff/7ZxsaGDm9ra7tv3z7FsyKRaN68ed98842Dg8OgQYNmzZoVFBSkuIvj+N95GDdunImJybffftvc3Lxy5cpff/2VoigYhi0sLI4fPz5lypTq6mqKory9va2srIQCXl+cHPsIOAzDDh48+MUXX1y4cGHlypVz5sxRDDaFQqGHh8fmzZu3bt26efPm33//ncVicblckUhUVFQ0fPjwmJgY2lKrrq42MjIKDQ09evToxIkTL1++fOTIkaSkpOvXr48YMeLs2bPHjx9/+PChi4uLlZUVl8ulBQ8PD9+xY8eYMWOuX7++fPnyqVOn1tTU3L5921F+jBgxIjs7Oy4u7r/+67/27t177NgxIyOj3NzcwMBAIyOj48ePnzp1ytXV9eDBgzY2NhAEpaWljRkzJi8vT4EeoVBYVFQ0bdq04uJiZeoxmcy6urp79+6ZmZm1tbW9ePFi+PDhjx49kkgkiYmJ48aN27Nnz7fffstisVAUXbt2rYODw6RJk9zc3MRicWFh4bBhw7KysiAIUoaXKuf6B7iGadOm5efnUxR1//79iRMnPnz4cNCgQcePH79169aiRYusrKySk5NnzpzJ5XJPnTq1ePFiup8sWrToypUrf/zxh52dnY+Pz3vvvbdy5crIyMgpU6a0t7cr+hJFUSRJ2tjY0IC7c+eOubk5Dbh9+/Zt2rRp3rx57u7uFEXV1dUZjxqVk5OlDYB7GBQ0e/bX9MhuyZIlR48e3bdv34QJE65fv+7s7Dx8+PDz58+HhoZaWFiIxWKKolxdXa2srBISEj7++GNzc/OCgoJp06aVlJRYWlra2NjcvHnz9OnTH3300dWrVwcPHrxr1647d+5s2bJl9OjRiYmJkyZNqq+vpyiKllRZOoqiPD09586diyBIXV2dqalpWloabQjPnj3bwcFh4cKFdPhVq1bt379f8SyDwRg/fjxdiSYmJhs2bMjKylLclUgkhYWFbW1tNTU1RkZGd+/eXbVqFc1lCIIsLS1//fXXyZMn19TU0BmYN2+eSDjAgNu/f//atWspikpLS5swYUJFRQXNCD6fn5iYePPmzVu3bt28eTMgIIDNZnO5XAiC8vPzBw8enJKSIhKJBAJBbW2tiYmJs7Pz+PHjg4ODpVIpiqI8Hs/U1PTcuXP0nyRJXrx48dtvv+VyuU1NTdOnT/9/7Z15XFNnusd7/5h7/7j3zmc+c2+r04VqXQY3EEVRrIq9LmPtWJ3Wpa5FgRZxqd3t9Tq11WmrVse6bwiEXUABZRMEhLAESFjCEhIIS0hIQnK2nHOyQa7kHc+koKxJCMl7Pnz0zcmb57zn9zzvN8/7vuecpKamBgcH79+/v6enp6Ojw83NLSYmRqlUXrx4MSQkZOLEiaGhoRkZGW+88YZUKqUoysPD4/bt2xs2bDh8+HB3dzdt3kpLSydNmlRRUXH06NGNGzcy6wZqtZqm6TNnzmzbts0yJwUkMhgM169fB4Bramr6wx/+kJaWZjQaHz58OHPmzKCgoLVr1yoUCoqitm/fHhAQMGPGDBaLZTAYysvL3dzciouLIeC07e1t3t7eJSUlJpMpPT3dw8PjwoULbm5uFy5cuHjx4vXr13NycrKzs5csWYKi6BdffBEQEAD6ybZt244fP15RUTFz5sx58+ZdvHjxT3/6k7e3t2UeAWpqtVoGcFFRUe7u7mBYBGbi1q9ff+bMGZPJVF1dPXnyZEFDvSMMURMS7ixbtgysHQcHB4eEhOzYsWP16tU3bty4dOnSrVu3GhoaoqKinoyAwEKERCLx8vKaN2/ek6ninTt3Ll68+C9/+QtJkjNnztyzZ8/169cvX74cExOTmpr68ssvHz9+/MqVK1evXr1//z6Hw5k7dy6Y5n///ffPnTvHYAgUwsPD/fz8SJLs6uqaOXNmUlKSyWSKjY318/P729/+tnTpUtDIt99+23KIevPmzblz5wILa9euTUhI6GOWeblixYozZ858+OGH+/btM5lMCoXC29v75s2bM2bMqKysNJlMZ8+eXbdunU47lkNUrVZ7+PDhnTt36nS6wsJCT09PPp8PAIfj+PXr1zdt2gSmWY4cOQIyOAzDhEKhu7s7mCh4Mu3IZrMnTpx48+bN6dOnFxUVgfGsXC6fNm1aVFSUXq8nCMJoNJ4+fXrNmjU4jisUCh8fHwZwOp0ORdGZM2devXp19+7da9euvXXr1vz5869du5aRkTF16tSWlhYcx+fNm3ft2rUVK1acPXvWYDDgOA5wtm7duk8//XTZsmW3bt1ihqJgmgwMdS13AsDRNH3t2jUw/S2RSKZMmcJisXp6emJjY318fI4fP75w4cLOzk69Xr9y5cqjR4/6+Pj8/e9/7+npyc7Odnd3ZyQaSuLG1HHCDM7T0zMuLk6hUAQGBr733ns8Hm/69Ol3796labqmpoam6cLCwilTppSVlbFYrNmzZ4vF4pqamilTpsTHx3d3d/v6+s6aNQtMgv7rv/5rn+kek8mk1WpXr179t7/9zWQy8Xi8l156KS4urry8/I9//GNubu6RI0d8fX2bmpq+/PLLVatWOcYigzExIWHWrFktLS319fUzZ85ksVh///vffXx82tra1Gp1XV2dyWRKSkpyd3cHIwuTybRz587/+I//6OzsTEtLe+GFF27cuGEymTZv3rx9+3aVStXR0SEWi9Vq9YwZM86fP0/TtEAgUKlUtbW1s2bNAoD7y1/+AmYqGfqYTKawsLClS5fiOG4ymVavXr1z506hULh58+aDBw+Wlpa+/PLLqampubm57u7upaWlzAdTUlJee+213NxciUQChpxSqZRZ8DUajYWFhQ0NDWw2Gwx8Ll26NGXKlNra2gsXLoDT9PT0/OabbxobG1esWPH999+ZTMbRPIx+9EPUQ4cObd++XafTPX78ePbs2Za9VygUlj3dqqurVSoV6K44joeEhMyZM4fNZldVVa1du3bFihUikWjRokWHDh2SSqUcDqeurm79+vV//vOfm5ubq6qqqqurb926NWvWLD6fn5yc/Nprrz148CAkJGTbtm1yuTw0NPTVV19NTEx86aWXEhMT29vbPTw8zp8/n5GRMXnyZLFYjGGYh4dHeHj44cOHly9fXm/e2Gw2RVFPQuh3v/vdnDlzGhsbmaEoQRB5eXk+Pj5CoZDZybCGpumrV696eXlJpVIcx9etW7dx40aBQPDee+/t3bv30aNHv/vd7+Lj49PT0ydPnvzE1wEBAX5+fvX19YGBge+88w6jA2NwKAVnA5xE0r5ixYqFCxcuXbrU19eXx+OZTKZz587Nnj37rbfeWrZsGZ/PJwhi5cqVmzdvVqlUAQEBPj4+3t7egYGBBEGYTKYzZ86A4adIJNq8ebNCoWC6GSjodLqtW7eeP38eTG9///337u7uc+bM+fLLL/V6vUAg8PPz8/b2nj9/fkFBQe/FEKNYrbPKZ009hrQHD/74xz/6+fnNnz9/79694EHbO3bs8Pb2Xrp0aVBQEE3TXV1da9asmTt37rFjx0wmU3x8/MGDB00mk0ql+vOf/8zn800mU319/bJly3x9fRcvXgzWkRMTEz09PZcvX+7r65uVlSUSiZYsWQKGqLt37758+XIf9WJjY999910AuMePH8+bN2/+/Pl+fn4ikchgMBw+fHjWrFmzZ8/+61//CgbL4OMkSe7du3fGjBlLly6dPXv25MmTN23aBNYcTCaTTqfbu3fvvHnz5syZExQURFGUQqFYv369l5fX7Nmz4+LiwOnMnj17/vz5GzZsUCgUBv2oHmU6SsDRNP3NN998/PHHT74si4qKli1bxgxRQRKE4zhYqbTEBIqizc3N77777owZM2bNmuXr61tYWEjTdHJy8ty5cxctWuTl5XX79u2ysrLFixcvXLhw3rx53377rVAoXL58OXD09OnTs7OzP/nkkxdffHHp0qVTp049fvz4k+m5wMBAT0/PtWvXLl68OCgo6P79+97e3i0tLRiGvfnmm1FRUY2NjatWrZo3b563t/e+ffswDGtra5s0adLevXsJgmAWN0mS/P7770NCQp45lqQoKiwszM/PDwx+MzMzPTw85s6du2TJEi6X++QqkIMHD/7RvH3++eckSRYVFXl7e8+dO/dJhOTl5THTfEPhGlPHqQCnpTUkqWltbRWLxeXl5eBaBNBDWlpaysrKZDIZmIdCUbS+vt5kMhmNxurqaj6fz6QDGo0GkM5kMsnlclC/Ty+VyWQoijI7Gxsba2trmZo4joMpoV77DnCrlk7be9mkRCKpra3l8/lMO41GY5V5Y84XQRAOhwPwBC6/NJlMPT09CoWCuTRao9FUVFTU19cze+RyOYfDaWlpAayRSCTgomK5XG7pAiAXQRCWyZdSqayoqGCq9fT01NXVAdcw8oIC8FRFRUVnZ2d1dXV9fT3jMpPJpNFoKisrLc+OpunKykpwLsCCRCLh8XgAi2N7oS+KomKxGFwmJpfLGxoawEQb0y2fV8Aw7Mn3UHFxcUFBgVQqBfNcGo1GLBbn5uZWVFQoFAqCIDo6OvLz80tKSmQyGYZh7e3tBQUFTU1NjY2NarV6z54927dvLyoqqq6uxs2bUqksLCysrq6WyWSVlZUSiaS+vr6rq0utVgsEgvb2doIg5HJ5YWEhm83u6OhAUbS4uHj27NlgLdWytUKhsK2tjUGe5VsIgkgkEoFA0NXVpVKpcBxvbm4uKCgAY2HUvJWbNwRBUBTFcbytrQ20fGR0U6vVTgU4miKMRse6Xt8RAEdTvVfVwo1RwBFu1cLMG5OvPZMIlnSwLIP8zvLCVxRFCYIAiTmwCRJAYBa8C45I03RQUNChQ4d0Oh2zDoAgCPg4uEoOQRAmc8QwDBwI1CEIgiTJR48ezZ49+8CBA/2Hjah5s2ytZdnSMqAPWDBh6oBTY9RgWs5UGG7B2QAHb7Z/1qhW0zPgvWtMz3eRgiMAbrgd1Vr1EQQpKysrLy9nIDJcywiCiESi/Px8lUplCdnh2rFPfQg423ZqB8ngIOAs3ezKgAP3LYx4xAeoBLK5ESPSPmgDR3E2wOm0lEGvHeUfqcF5XK7WGqYc5nlw9Cg1Gf3H9Tq6pKRYrVJ2G/WjtzYaC/pR/xrkKBcZ7NnDXfxYzga4Zw3QhncTu5bWqLsUiQl3SA06misJRt8SZ7IAnugbHna7taUJPtHXxaFjz9OHgOuLv17AqRR3k5Ig4KxIWAC4SFZEW6sYAs6ePdzFjwUBBwHXVwErco0xBQHn4qAZq9OHgOvbvWEGx1DJigVbK3jfAAAgAElEQVQIuLHq4S5+XAg4CLi+CliRa4wpCDgXB81YnT4EXN/uDTM4hkpWLEDAjVUPd/HjQsBBwPVVwIpcY0xBwLk4aMbq9CHg+nZvmMExVLJiwSkBV1paCp49Ce6Cgv86oAIEQdTW1lZVcvs/wNnf39/y8u+Byy8M/Pbz3vX397diL7KKKQg4q8jYx4gzAk748OFDcAd7o7NsQqHQ+c6osLCQyy2HgPtHKgcB14dNVnnpZIDTaUmFXMYuLCguYjvPXzH7/v3U8LCw4uIi5zmpIja7sKC1pbn/Rfswg4N3MvQdv48Ydk4GOJoitLTGoKcNOspp/rq7dZW8iqTEO93deqc5KXAi/dM3miIg4CDgIOCspsCIvxvs9kG9jqrkVWRkpI3yR2Pt1uBRHggCDgLOat3b+TK4UfYuB/w4AFx6+gMIuP5rBnCRwWoscMDQH32TIOBGr6GtLUDA9ecaswcCDgJuIAUg4GyNp9Hbh4BjcNa/AAE3UPceffCNdwsQcI7vQQi4/lxj9kDAQcANpAAEHAScoykAFxngIsNAzBpWvELADUuuMakMMzgmX+tfgBmc1VgwJsFt64NCwNla4dHbh4DrzzVmDwQcBNxACkDAjR5AtrYAAcfgrH8BAm6g7m3r0HR8+xBwju8jCLj+XGP2QMBBwA2kAAQcBJyjKQAXGeAiw0DMGla8QsANS64xqQwzOCZf61+AGZzVWDAmwW3rg0LA2Vrh0duHgOvPNWYPBBwE3EAKQMCNHkC2tgABx+CsfwECbqDubevQdHz7EHCO7yMIuP5cY/ZAwEHADaQABBwEnKMpABcZ4CLDQMwaVrxCwA1LrjGpDDM4Jl/rX4AZnNVYMCbBbeuDQsDZWuHR24eA6881Zg8EHATcQApAwI0eQLa2AAHH4Kx/AQJuoO5t69B0fPsQcI7vIwi4/lxj9kDAQcANpAAEHAScoykAFxngIsNAzBpWvELADUuuMakMMzgmX+tfgBmc1VgwJsFt64NCwNla4dHbh4DrzzVmDwQcBNxACkDAjR5AtrYAAcfgrH/BSQCnpTU93XoNgaQkJxv0VLdR1/8HsW0dZ85n36yqzqjXRkdHSqUSk6n7mT/E63wnPo7OSKcle3qM/JqqrKyMnh6j0aAdR40fWVNdbg5OS2vUKkVVZUVJMfvG9evlZaU11ZUYqoKMG1kAgU9paQ2GqnjcsvIyzi+//JKTk11RUa6QSyHjRqOqdT+rpTWtLU1cbkVKyr3wsNvcivKa6koNgVIkbt0DOZQ1lwOcXkd1SFo/+eSTgICAoKCgPXv2HD16VKVS6HWkQzlmfDVGpyW7uuRfffXV3r17g4KCAgICQkJCGhrqDHp6fJ2IE7e226jLykz39/8wMDAQRP6lSxdJDebEp0xThMsBjqYInZa6euXyrl27goKCdu3aFRcXC/vh6KPcaNAmJSXs3r07MDBw9+7dly5dpGkC5sWjF9ZaFnRaslMm+erLL/eYt+DgYB6vwul/394VAWc0aBvq+fv27duzZ8+nn37W0dHm9G62VicZwI5eR3XKJEeOHPH39w8ODq6trTHC9I0aaE1mADFt9JZBT6emJu/Zs+fDDz+8eOmCcw9OgYYOATidltTrKLv9GfS0QU/fuHF9x44diYl3TD16ux0aHMjWeY2W1tj5jMDhTCZDamry9u3br1y51G3UjkkbbK3t6NFj52i39EK3QatUyI4c+fqjjz6qquL22D3yLRtjn/lZRwCcRqmQNTcJ7fnX1irOz8s9cuTr8nJOa0uzPQ/d3CxUdclt1w+1tAZRd4mbRXY9KbP7WluaebyKr776Kic7q72txf4NaG4SKuRS22k7SrqZF7iUY+IaxhdtreLbt2/9+OMPjY31Yvt2OqYNoCDv7BilnkP5+NgDTqel2OyCnJyc0tLSEjtu4HAcDseOxywpLS3NysriVpTbblCs11H1dbXp6el21hPICA46VofOzs4uKiq0nbZD6VED1NHrqJrqyszMTHuGXP9jjYl3+jQjOzu7sPCxHTzlCIAji4sKxWIxjuOofTcMw+x7QJQgiPr6+oqKMtu5Vq+j6ur4lZWVBEHY+ezA4eyvKjguQRAiUVNJcbF9xj4DgOx5b+l1VHUVr6amxv6h3icSxspHoBk4jotEoqKiQjt4ylEA19TUhKKo2tk3DMPq6ursADgej4dhmLPL+avzwzCssVHo+ICrrqpyhVD/lW9+/QJF0cbGxt5cW2vza7Mg4H6tvY1fQcDZTmAIONtpa13LEHDW1dOBrEHA2c4ZEHC209a6liHgrKunA1mDgLOdMyDgbKetdS1DwFlXTweyBgFnO2dAwNlOW+tahoCzrp4OZA0CznbOgICznbbWtQwBZ109HcgaBJztnAEBZzttrWsZAs66ejqQNQg42zkDAs522lrXMgScdfV0IGsQcLZzBgSc7bS1rmUIOOvq6UDWIOBs5wwIONtpa13LEHDD1hNFUdK8jeDyfQRBNBoNSZLgXxzH+x8e3FvTf/9w9zg+4CzVAIIQBDGs07S0QJLkMz0CbiMbltlBK7sC4Bht7XYvBLipa1Dxh1UBAm5YcqkJgpBKpenp6ampqWKxmCTJoX8eQRC5XM7hcPLMW25ubm1tbf/oqaqqEolEAKP93x364RwccCiKSiSSx48f5+bmstlsUCguLlapVAiCDOU0EQSRSqWlpaWMngKBwFIxBEFUKhWXy21tbcUwjCTJIVoe9OhODzigbXp6enJyMlBvUE1GWUGlUlVUVIjFYgRBSJK09ONoLEPADUM9giCqq6tXrFgxd+5cb29vT0/PjIwMgiBAzkWSpGUCQhBEn5xCo9FwudypU6d6eHj4+Ph4e3v/9NNPOp0O5B0oimo0mieBFRQUdP78eb1eHxERUVxcTNP0MJpoUdXBAUeSZGFh4bJlyxYsWDBx4sSpU6f6+vpu3ry5s7MTM29qtRpBEIIgEPMGUjzLuCdJ8tGjR5MnT/by8vLx8VmwYMG1a9eMRiOoA4gml8u3bduWkJCAIMiVK1eEQiH4TurvHQvlBi86N+AQBOns7NyyZctc87ZixYr6+vr+2XH/bwsEQTAMw3Fco9H0r69W9+YHIMgRBGFGKiDyFQrFpk2bYmJiCIK4dOkSn88HnsIw7HnWBveTWg0BNxSVeuuAzvbBBx8sX75cKBRKpdLdu3d7enq2t7c3Nja2tLRkZ2eXlpYiCIKiKI7j5eXlDx48EIlEDPU0Gk15efmrr76ak5OjUChaW1vb2trKysra2tpIkmxvb+dwOHV1dQkJCbW1tQKBYNq0af/7v/9bU1Mz9KTG8mQcHHAIgigUiubmZpFItGjRouPHj3M4nNLSUhRFu7q6WltbURQF+ZdUKkUQJD8/Pzs7Wy6XM+N6kiQzMjKmT59eUVEhl8tbzRuHw5FKpSRJNjU1cbnc6urq+Pj4lpaWzMzMV155JTQ0tLGxEcfxysrK+/fv19XV9e+llho+r+zcgFOr1XK5nMVi8fm9j4p56aWXQkND+3zRyuXytrY2lUplKVFbW1tjY2NNTU16enpLS4vltxGGYUqlMse8KRQKpVJZWlra0dGh0Wiam5srKiqqqqoSEhKam5tLS0t///vfnz9/vq6uDsMw4Ck+n295oKGXIeCGqhWO4wKBwN3dPSoqymAwaLVaDoczYcKEjIyMbdu2LVmy5K233nrjjTdu376t0+l++OGHuXPn+vn5eXt7P3jwQKPRqNVqADg3N7ewsDA2m93Q0KDRaPbv379lyxaVSrV169bDhw/fvHnzlVdeiY6OTkxM/O1vfztnzpwjR44oFIoR9EMHBxzznYFhmJ+f32XztnLlSoIgsrKytm7diqJoQUHBwoULy8vLg4OD582bt3jx4rfffrupqQkwjiTJrKysadOmJSYmFhYWNjU1qdXq9957LyQkRC6Xr1y58kfz9uqrr+bm5p44ceLf//3flyxZEhoa+uDBA3d39yVLluzYsUMmk1n2wyFGg9MDDoQrTdNlZWWTJ09+8OCB5WyMXq/Pyck5ePCgTqdjvm8oikpKSpozZ86aNWvmzZv31ltvtbS0gLhFUbStre2DDz7wMW8bN24UCAQffPBBSEiIVCpds2bNyZMnf/zxx0mTJuXk5Fy9evXf/u3fFixYcP78+bS0tBkzZvj6+m7dulUul4+gF0DADTGke/FUXFw8ffr0R48ekSSJ43hjY+OUKVNiYmLWrFlz4MABlUq1b9++zZs3FxcXv/766+Hh4Q0NDVu3bn3rrbcYwHG53JdffnnmzJnz588/ceIETdN8Pn/hwoWrV69etmxZU1OTXC5funTpL7/8gqLowoULr1279sxUfyiNdnzAAcapVKrly5efP3+ey+VOnjyZx+MdOnToN7/5DZvNPnHixPr162NiYqZOnQomaLy8vE6fPg2yCZIks7OzJ0yYMGfOHG9v76tXr+r1+sePH3t6ev7P//zPO++809nZ2dzcPG/evOTkZD6fP3PmzNzcXJ1Od/LkyalTp3K53Obm5j45yFCEVavVrgA4MIrcs2fPqlWrlEolAxeZTJaRkXH06NE333wzISGhqqoKvEVRVExMzBtvvFFSUsLj8aZNm5aUlASwSJLkd9995+npWVJSUlBQMHXq1LNnz5aXl8+ZM8fPz2/NmjVPxkNisdjLyyspKam1tdXNzS05OZmm6ePHj0+aNInH44lEoq6urhE4CwJuiCHdO31QVVU1ffr0e/fu0TSt0Wiqq6tfeeWVlJSUt99++/LlyyaT6dy5cxs2bLh+/fpvf/vb9ebNz89v586doCczGVxWVpZEIpFKpWq12mg0Xr58+YUXXoiPj+/p6enq6lq1atUvv/xCkuTixYvDw8N1Ot1Qm/jreuMLcGfOnKFpev369YGBgSDo/f39/fz8bt++/e233/7pT3/Smre9e/fu2bOH6TaZmZnu7u4lJSUSiUQmk6nV6u7u7qNHj77wwgtsNttgMLS3ty9atCglJaWhocHDw4PD4eh0utra2nXr1nl6eoaFhYEJvl8rN/grVwAcTdOJiYkvvfRSZmYmk74hCNLa2vrFF1+sWrVqypQp/v7+ycnJIImjKCoqKsrHx0ehUHR1dfn4+Ny6dYumaaDw+++/P2nSpI0bN65fv97X1/fcuXM9PT1ff/31Cy+8kJ+fr9frJRKJj49PUlJSR0fHpEmTsrKy9Ho9n89fv369p6dnaGgoiqIMZAf30NMaEHBPlRjsfxRFlUqlr69vYGCgVqvt6ek5d+7ca6+9xufz16xZc/78eZPJdPbs2Y0bN0ZFRb322mtVVVVdXV1SqbSzsxPYBoB7/fXXeTxed3c3TdMkSXZ2dm7YsOEPf/jDtm3bwFhp5cqVv/zyi0ajWbBgwa1bt0wm0wjGUCDLcPwHXoKFzuXLl586dcpkMl2+fPk3v/nN7t27Kysr3dzcpk+fLhaLT506tWjRIoIgaJpeu3bt559/TlGUWq0Gc3CzZs0Si8VGoxHo2dTUtHz58okTJx46dIiiKNBtAODc3d1LS0sNBgOO4xiGnTt37ve//31FRQUzyBosBP75vtMDDgwqvb29v/jiC4PBwAAOSEDT9N27d7ds2WI5/U9RVHR09IIFCzo6OuRyuY+PDzNzh+P4zp07161bp1Ao5HJ5R0eHWq0Wi8VLly6dMGHC/v37NRpNR0fHwoULk5KSJBKJm5tbZmam0WjEzduZM2cmTpzI4XBG4CkIuH9G7aAliqJiY2MnTJiwa9euffv2TZgw4ccff0RRdOnSpT///LPJZPrpp59WrFjR2tq6YsWKNWvW/Pzzz4GBgWVlZWCdgSTJsrKy//qv/9q0adP+/fs//vjjpKSkL7/8ctGiRVwu19vb+7PPPlMqlcuXL//5558NBsOmTZt8fHx++umnhoaGEbh2HGVwCxYsOHnypNFo5PP5EyZMiIuL6+npec+8abVaLpfr4eGxb9++Tz/99PXXX8/PzwdDfgC4F198cefOnU/m3YKDg5+s6uzYsePtt98uLi6eNm3a6dOnZTKZl5dXYmJiV1fXnDlzNmzYEBoaymKxgoODP/nkk//+7/8uLS1lVoEGDQCmgtMD7skS0L59+/7lX/5ly5YtISEhp06d6urqsjz9urq6lJQUy6yKoqiIiAhPT0+JRNLZ2Tl37tzr16+DyQSCIDIyMqZOnbp///5vv/32m2++kUqlW7dufeedd9hs9rRp006dOiWTyTw8POLi4tRq9bJly1avXn3x4sUbN2589NFHBw4cePnll4uKikbQCyDgGK8NqYBhWEpKykcffbR3796oqCiQW127di0vL4+m6ZycnGvXrhEEwefzjxw5EhgY+MMPPzQ1NYF5NAzDmpubT5w4cejQoYMHDx44cCAqKurUqVO5ubkGgyE3N/e7774Ti8U3b97My8ujKKqiogLUrK+vH4FrxwXg1Gq1SqW6dOlSdnY2QRBKpTIsLKylpYWiqLy8vPT0dMK85efnHzx4MCQkJC0tjZmUxHG8rq7u+PHjQKWDBw/GxsaeOHGirKzMYDDcu3fv1KlT7e3tly5d4nK5FEWlp6cHBAT88MMPjx49OnjwYGBgYHx8PByi9o97BEE6OjpOnTr11VdfffLJJwcOHDh79qwl4NTmyy/A1wzzcRzHORzOhQsX5HK5Uqm8cOGCJZIwDEtPT99n3mJiYurr648fP15WVqbT6VJTU0+fPt3W1nbhwoWysjKNRlNQUBAcHHzkyJG0tLQDBw4EBATExsaOYHwK2gkfWc74aPACgiAURdHmjaIoZnoVx3GVSoXjOBg94ThO0zRFUVqt1nKAiaKoVqvVPd00Gg2YzlOpVKAM7BMEAawBI5YWBm/i0xrjBXBqtZqmaSaN0mg04HzB8AScjUaj0Wq1YBD69Px6/++vp1arBb4gSRI4iKIowESwB1yu2MeDljaHUnb6DE6tVoPoBaEKonpQZVAUBZqDMAaOYFYGNBoN6DsURYGaIM7BFY7gIxiGqVQqgiAo88YUmL42aBv6VIAZXB9BnOflOALcuBPdFQA37pzyzAZDwD1TFmfYCQFnOy9CwNlOW+tahoCzrp4OZA0CznbOgICznbbWtQwBZ109HcgaBJztnAEBZzttrWsZAs66ejqQNQg42zkDAs522lrXMgScdfV0IGsQcLZzBgSc7bS1rmUIOOvq6UDWIOBs5wwIONtpa13LEHDW1dOBrEHA2c4ZEHC209a6liHgrKunA1mDgLOdMyDgbKetdS1DwFlXTweyBgFnO2dAwNlOW+tahoCzrp4OZA0CznbOgICznbbWtexygCtiFzQ1NY3s7s7RSD+yW4VHc0QAuPJyjl5H0RRhiz+9jqqt5XN5POYG+NE0eASfNftxSL9QMwLjA3wEwzCBoLG4uEinJW0h7Oht6nVUVSW3qrLK/qHeRzf7R75lA/4BOHaBHTzl7+9vGvL2wpBr/qqiv7//AMGh05KlJUUPs7IKCh7bc+v9PYGHDx8/zrfnQQsKCjIyMqoqeTYFXKOgPi0trcDOgj7VMSsrKy8v7+kr+/1fUFCQmZnJKS22Q7cZIJ4HeMv83VOTnp5mP1GedaRHjx7l5OQ8zrdr5PdpSGZmZnER23a9gPHC2AOOpggMVck7O+z5p5BLW1ua4mJjZdJ2hVxqz0PL5VIcU2tpm6RvwK8Ejtj7pMzuU8ilMqnk4oVf6mprupRyu6r6j/iRokgXE9yOVtDSGhwbG9cwvlAqOh/n56Wk3OtSdjI7x6RgH085BOC0tEanJe35p9dRKNJ17+5dmsL1Osqeh9ZpSS2tsWnfs7+eQEDwhXz58qUOSWu3UWdnVcHhbK3t6B03Vt4B+hgN2vIyzsOsjG6DdkwcxBzUPp5yCMCNPmiGa0FLa9QqRWLCHQ2B2Efo4bZwPNbX0hpSg12+fKm9TWzQ0+PxFJy+zXodVcYpzcpMN9hsFtihNHRRwNEUQeAIixXRpezU6xx0TtqhAmUojYGAG4pKY1tHr6M4pcWZGWkGva2Wucb2BPsc3XUBR1NEZCRL3tkBAdcnJkb8EgJuxNLZ7YMGPZ2Xm1PELnCRFNt1AaelNfHxcZL2Fhf5KrNDF9LSGorEb964DoeodlB7ZIcw6Onke3fr6/h6nUvMIbgu4Ax6OisrnVNaYjS4hKdH1h+G9SkAuIjwMPPXBlTVhgvlw/KLZWXzzEy4vLPDRaaeXRdwRoOWxy2/n5riIrm6ZZTbqAwAFxkZ0SFptcMlTjY6Cyc2a9DTdbU1d+7EOeylglYX33UBp9dRCrmUxYpAkS7X8bfVA8jSIAScpRoOWNbSmujoyKoqrut8qbsu4GiKMOjp1NTkgsL8bqPWAcNx3DUJAs6RXdZt1LELH9+7l0jTGhcZn9IU4dKA02lJubzj2rUrHR1trvOdZrtOCAFnO21Hadmgp5tEjazICHlnh0uNV1wacDRFgJm42NhoiiRcyvGj7DDP/DgE3DNlGfOdRoNWJGy4dvWyWNzkanOjrg44La3R66ikxISY6CiK7L1ta8zDcfw2AALO0XynpTVGg7a+jn/9+tWa6koXHKa4OuBoijDPR+B34uNiYqJwDHHBILBWt4SAs5aSVrGj11EEgT7MygwNvemyF+5AwPVerNQ7OKWJ+/dTWKwImbS926B1nVlYq/QlYAQCzopijsaUTkvqdZRIKIiICL93NxFFulx2aAIB94+rMbW0ptuo43HLb9y4XsYpITUYTOWG28cg4IarmNXrg0fjdEha76emhIWF1tfzDeaH5Vj9QOPFIATcry43Nxq0Crk0Li6WxYpoEYsMesqgp2E2N8RohoAbolBWr6alNQY9rddRQqEg4U58ZGQEt5xDajCXTdwYhSHgfgU4miL0ut4n01VVcUNv3bpzJ765qVGv68UcIxksPE8BCLjnKWO7/TotadDTqLqLxy2/m5QYHhZWUc4hcESvo+AXs6tfB/e8sANrTxSJczglN29cj4+PFQkFFIkbzc8IfN6n4H4IOLvFAOAaReLiZmFmRnokKyLhTpxAUAemViDaGEfADK5vBsdIAzCnITBuRVlUJIvFiijjlKjVSjAWYKrBAqMABBwjhY0KOvNQlCLx1pamgoK8uLiYiIiwx/m5CrkULCxAtPVRHgLuuYADSgHMaWmNSCRIe3A/PDzsfmqKuFkELhKGcxyW8QQBZ6mGtcrgUk2DniY1WFub+FFOdkx0VHx8bG5udou4Nw4Nehpeo/48tSHgBgEcEA5M4hoNWqWik8MpiY6OYrHCCwvzO2USvY6CQ1dGJYrE4dNEntfZhrUfhJxBTyNIl6ChLiszIywsNCqSlZub09YqpkgcjiSGoicE3JAAx0ip05JGQ++d+SKh4FHOw+joyKgoVklxUe8YwUw6V87pYAbHxMnICmaoUeABhTJpe3lZSVxsDIsVnpJ8t4hdIO7N13q5ZoffLRpZ+x3wUxBwwwMccCGT0OGYms+vupuUeOvWjfj42JJitkzqujkdAFxYWCh8ou+wujr41tRpyS6lnF9TmZebExcbExZ2OyXlXkU5p0spB0sKcGF0WKqCyhBwIwEcIzRDOgTpqqnmpaYks1jhd+7EcTjFMqlEp+29E9Cgd5UFe/CbDFevXoGAYyLkeQW9rvfyDr2OwlBVc1Nj7qPsO3fiwsNvJyYmsNkFzc1CHFMb9DS8DPN5Ag5xPwTcqADHqAy+hI0GLYEjAkF9RkZaVBQrKTHhUU52i7iJ1GDdRq3TfwPrtCRF4pcvX5K0t4CBPKMPLDxdK+gdgWKoWtwsLCzIT0m+x2JFxERHZWVlCIUNiFrJTL3B9VCrxAwEnHUAZ+kMg3kyjiAQobAhJ+dhVFRkRHh4bm6OSCRA1F06Xe8snrMue2EYeunSJXFzE01TFIlbyuKCZQA14G4MVbW2NpeWFicmJkREhMXFxuTkZNXW1shlErBS7/Tff2MSABBw1gcccCQzeqUpokPSWlpaFB8fe/Pm9aSkBB6vokshAxx0jrAGz38/febUyZMnDx8+/N3x4ydOnqiv47vgHSDgejTz1ARN4EhrS1NRUeG9u0msyIjo6KjMzHQ+v0qpkIHLO8AoFSZrtmMfBJytAGfpM7157VVLazplkkoeNz39ASsiPDYmml1YIJG0khoM9IfxG+hgeeHM6VPbd+wIDAzctWvX118fcZ2Hx5q/zKhug1avI1F1l1gsKilmp6YmR0dFxsfF5uQ85NdUdco6wLUdcFrNsmvYugwBZw/AAS8+nYWhjQYtjqkb6muzsjJiY6MjWOFpaQ8EgjoCR40GLRjRjDvYdRu01VW8jz/+OCAgwN/fPzMjvduos3X4jpV9La2xzNRwTN3cJGQXPk5MuBMRHh4VyUpPT+Pzq5UKmXn42btWoNeS486nYyWvFY8LAWc/wFm67R8DWPPl6S0tTezCxwkJd2Kio1JT7nG55Qp574Pzjb0Zwbh5wrC59+IXLl7YuXPn0aP/q+5SON88IzPtoNOSapVcJBQUsQuSkhLCwm7Hxkbn5z2qq61RKmTgtmV4g4FlwI9VGQJubADH+JuZh9brqC6lvIxTkpSUwIoIT0i4U1jwWNLeAu4Js3pv+Uc20bsOYJ0/0Kurqrh79uxJS7vfbdSZFxmsY9zcSPDsZbv6C2RqBn1v0q3TkhiqEgkF+Xm5cbExt27d7B1+Zj9saKhVKjvBDS3wKlwmsB2kAAFn1w4zsNeZrA1DVcLGBvCUiNjY6LzcnPr6WkStND7taQPbGfRdvY4SNNRnZ2fl5+fl5+Va7S8/L/dRTmjorYyM9Mf5+VYza25hTk52eRnn6SPmbes1JlPTUhqlQtZQX5ubmx0fH2t+aEc8u/CxQFDXpZTb6LtnUPfBCkNXAALOtl1l6J6wrAnSOvMcFt7e3lJY+Dg2JoYV0XvLTiWvQqno1Pdea9J7mejIpnX0OorHLedyuZ2dnVLrbWbPS/kAAAqQSURBVB0dvbYUCoVMJusAL6xkXCaTiUSivLxcisRHdsqW8vYvW06P6miNqkvOr6nKykyP7/2ljui7dxPzcnMaBfVqldKg7731GGZq/TV0zD0QcI4IOCZWmAGs+T6ezppqXnLy3dBbNxPuxJeUFLW3isEK7HBJp9dRlTxuXV0dQRCotTcEQaxtEsUwTCrtKCjIty7gmEyNpgiZVMLnVz96lJ2QcCc8PCzhTnzB4/zmJiGKqEBmbfVZAsbLsGA7BSDgHBpwjOMtJ4MwtKuhvvbRo97H5oSFhWZmpotEAhxHQHJhht0gJwUAV1tbi2GYejxsCIJIJJLRA+7pFwZtNPQ+ib5L2VldXZmZkRYZGcFihd+9m1hcxO4VE+t9Ii5Y5HG+pRImqFyhAAE3CAscMAjArddGA02RWFurmM0uuHMnjsWKSE6+a16Blep1VLfxGTdLMM9edynAMd8NYN1DJm2v5FVkpD8wixaelNQLtfY2MYaqeqEGb/+kxl+PGKCTQsCNY3eCrgtY1inrKC8rTUu7HxUVGRMT/Tg/V9LeysyCg8xFJBQIGupAYlLJ4zpxBsfMqYHnRMqk7dyKsoz03kwtNiY6JflecTFb3CwietPef6yQ2mJqb4COB9+yjwIQcOMYcJYhwlymgKHq+jr+g/upcbExCQlxD7My6mprMFRlMhkvXrywf/+BSh7XZDJWVY5jwOl1VE+3vg+SzFDrfUSH0aAlNWh7W0sv1DLS7sTHsSLCk+8llRSzpR1tGgIFdeAdBZbx46xlCDgnARwToMzEueWT+2NiopKT7x4+fHj37g8PHz5cXl7Kr6kajxkcSeI9Rl2HpC05+S6iVjK3E/T+ijuOSNpbedzylJTkqEhWJCsiIyOtoqKsvb1FQyDMLSKMULDgCgpAwDkb4JiofTqhrtVpKRRVxcRE7dmzJzAw0N/fPzg4OCIiXCAQoCg6HtYY1E8XGR4bDHR9Hf/o0aNBQUFSaTtNEW2tzSXF7Hv3EsPCbkdHR91PTamprpR2tJPmh3qD8XifXI+RCBacXgEIOKcFnGXsGg3a27dvbd++PTAwcN++fV9+8cXZs2cFAsH4WkVlswu5FWWff/65v79/QEDAlSuX4uJiYmOjsx9m8njlMmk7uGjGiZ9GZelTWB6KAhBwzg84La3REGjvumF8XGHBY0FDnVqlrORVjK8hamdnZ2ho6EcffbRr166AgIAPP/zwl/N/V3XJtXTvNc8wUxtKb3fBOhBwzg84ENZ6be+FXUZD75MtjAbtuFtFlUqlcXFxoaE3T3z/3aGDB/fs3Xv8+LfWve7XBfu/058yBJyrAM4ylMfpdXCF7AKjQashUHGzsLiYnZOdBX6QxfLUYBkqYKkABBwEnBWWGTAMQxDECoaeY+LpIkPvrVrm65xBNtr7+43wDyowgAIQcK7YQ6ySwaEoykCtsbFRoVAwa7KIeQOwAmXLys+B2EC7LQEHl0QH6M/wrT4KQMBBwA1Elme+hyCIRqNBURTHcZqmi4qKVq9eLRQKNRqNWq0mSRJFe2+PBy8xDAN7CPP2TIOD7oSA69Nv4cshKgABBwE3KF5+VQE8LCQiImLdunWbN28uLCz87LPP/vM//3PDhg337t2jaZrFYr377rvvv//+/fv3aZq+fPlyUFDQhg0btm/fXlRUBKj3K4tDeAEBN8T+DKv1UQACDgJuCICxqIJhmEgkmjBhwoEDB06fPl1UVHTlyhU3N7ezZ8/W1tampKS4ubmdOnXq66+/nj59elVV1ZYtWxYuXHj79u0NGzYsWLBALBbjOG5hb0hFCLg+/Ra+HKICEHAQcENCDFMJw7COjo4333xzzZo1xcXFer0+Nzd3/vz5LS0tPT09u3fvfv/997u7u3EcX7BgwdmzZ3ft2vXXv/7VZDKJRKJJkyYlJyfTNM1YG2IBAm6I/RlW66MABBwE3BAh889qGIa1trZ+9tlnr7zySmRkZH5+vpeXl1Ao7O7u3rx5c0BAgNFo1Gg0S5YsOXHixO7du48dO2Y0GiUSyZQpU+Li4iDg+nRC+NJ2CkDAQcD9k1xDKSEI0tnZmZub29TUtHz58m3btpWVlU2ePDklJUWpVP7www+enp51dXVpaWmTJk1KT0/fsWNHcHCwTCY7e/bslClTeDweQRBDOZBlHZjB2Q4Bzm0ZAg4CzpIkg5dB+rZy5co5c+Z4eHjExcWhKLp582Y3N7fAwMCWlpYdO3Z4eXl5eHh8/fXXJElu3779xRdf9PHxmTFjxvXr1+Eig3MDxdHODgIOAm5wqPWvIRKJ2Gx2Q0MDZt46OjqKi4v5fD6KokqlksPh8Hg8FEVJkty0aVNISAiXy21oaMBxnLl0rr/NAfbADM7RwDFe2gMBBwE3AFie+xaO4yRJMoNNcLEbeImiqMa8IQhCEMS2bdu+++677u5upvJzjT7/DQi48QIUR2snBBwE3PO5Mup3EAThcnt/vmtkiRtzfAg4RwPHeGkPBBwEHIMRmxQIghj9U+cg4MYLUBytnRBwEHA24Zp1jULAORo4xkt7IOAg4KzLIptYg4AbL0BxtHZCwEHA2QRJ1jUKAedo4Bgv7YGAg4CzLotsYg0CbrwAxdHaCQEHAWcTJFnXKASco4FjvLQHAg4Czrossok1CLjxAhRHaycEHAScTZBkXaMQcI4GjvHSHgg4CDjrssgm1iDgxgtQHK2dEHCuC7j6+nqCINDxsGEYJpVKCwp6f3QG/iaDo0HEkdsDAeeigONWlBexi4RCkUDQ6Ph/jY2NVVVVubk5EHCOTBMHbBsEnCsCTqcl29taSorZpaXF4+WvpJjd0FBLUwTM4ByQIw7bJAg4VwQcTRE6LanXUePrT6clHbYjwYY5pgIQcC4KOMcMR9gqqIB1FYCAg4CDCkAFnFYBCDinda11vwmhNajAeFQAAg4CDioAFXBaBWwIuMrKymPHjvk/3f7v6FEOp2Q8fgnANo+JAhxOyf8dPfo0fPxh/IyJF8bpQfsEz7FjxyorK02DbS8MVuGf78fGxoLQDAwMDA4ODgwMBC8jI1njVDLYbHsqEBnJgvFjT8Gd6VjPC57Y2Nh/EupZpaECrrKyEkRnRkYGYycjIwPshHmcMwWTLc6FwymB8WMLYV3B5sDBM3AeN1TAgZGpJd0A5gDj/u/oUVcQGp7jiBUAI1MYPyMW0JU/OHDwHDt2jEm5+heGCjh/f//AwMD+nzeZTEFBQf7+/q7sAHjugyoA42dQiWCF5ykwaPA8k0tg5zAAFxwc/ExDJ0+eBKMP+C9UYAAFYPwMIA58a2AFBg6eZ3Jp2IB7XgYHVhsGOAZ8CyowwJcwjB8YHgMrMJrgGWoGN/Ac3MDD4IFbD991BQVg/LiCl210jqMJnqECbuBV1IEXMmx02tDsOFIAxs84cpajNXU0wTNUwJlMpuddBzfopSiOphdsz5goAONnTGR3joOOOHiGATiTydTnToYhXkzsHBLDsxi9AjB+Rq+hy1oYWfAMD3AuKy48cagAVGA8KgABNx69BtsMFYAKDEkBCLghyQQrQQWgAuNRAQi48eg12GaoAFRgSApAwA1JJlgJKgAVGI8KQMCNR6/BNkMFoAJDUuD/ATlDcovTw2jyAAAAAElFTkSuQmCC;" vertex="1" parent="1">
          <mxGeometry x="-180" y="80" width="416" height="459" as="geometry" />
        </mxCell>
        <mxCell id="F_-EiX4ZoE0ep-XaQffV-7" style="edgeStyle=orthogonalEdgeStyle;rounded=0;orthogonalLoop=1;jettySize=auto;html=1;exitX=0.5;exitY=1;exitDx=0;exitDy=0;entryX=0.5;entryY=0;entryDx=0;entryDy=0;" edge="1" parent="1" source="F_-EiX4ZoE0ep-XaQffV-4" target="F_-EiX4ZoE0ep-XaQffV-5">
          <mxGeometry relative="1" as="geometry" />
        </mxCell>
        <mxCell id="F_-EiX4ZoE0ep-XaQffV-4" value="Start: Compartment" style="rounded=0;whiteSpace=wrap;html=1;" vertex="1" parent="1">
          <mxGeometry x="530" y="130" width="180" height="40" as="geometry" />
        </mxCell>
        <mxCell id="F_-EiX4ZoE0ep-XaQffV-13" style="edgeStyle=orthogonalEdgeStyle;rounded=0;orthogonalLoop=1;jettySize=auto;html=1;exitX=0.5;exitY=1;exitDx=0;exitDy=0;entryX=0.5;entryY=0;entryDx=0;entryDy=0;" edge="1" parent="1" source="F_-EiX4ZoE0ep-XaQffV-5" target="F_-EiX4ZoE0ep-XaQffV-10">
          <mxGeometry relative="1" as="geometry" />
        </mxCell>
        <mxCell id="F_-EiX4ZoE0ep-XaQffV-17" style="edgeStyle=orthogonalEdgeStyle;rounded=0;orthogonalLoop=1;jettySize=auto;html=1;exitX=0.5;exitY=1;exitDx=0;exitDy=0;entryX=0.5;entryY=0;entryDx=0;entryDy=0;" edge="1" parent="1" source="F_-EiX4ZoE0ep-XaQffV-5" target="F_-EiX4ZoE0ep-XaQffV-14">
          <mxGeometry relative="1" as="geometry" />
        </mxCell>
        <mxCell id="F_-EiX4ZoE0ep-XaQffV-5" value="IfcZone, with attribute FireCompartment" style="rounded=0;whiteSpace=wrap;html=1;" vertex="1" parent="1">
          <mxGeometry x="530" y="200" width="180" height="40" as="geometry" />
        </mxCell>
        <mxCell id="F_-EiX4ZoE0ep-XaQffV-6" value="&lt;div&gt;In case of a zone denoting a (fire) compartment, the following types should be used, if applicable, as values of the ObjectType attribute:&lt;/div&gt;&lt;div&gt;&lt;span style=&quot;background-color: initial;&quot;&gt;&quot;FireCompartment&#39;: a zone of spaces, collected to represent a single fire compartment.&lt;/span&gt;&lt;br&gt;&lt;/div&gt;&lt;div&gt;&lt;br&gt;&lt;/div&gt;&lt;div&gt;One of the purposes of a zone is to define a fire compartmentation. In this case it defines the geometric information about the fire compartment (through the contained spaces) and information, whether this compartment is ventilated or sprinkler protected. In addition the fire risk code and the hazard type can be added, the coding is normally defined within a national fire regulation. All that information is available within the relevant property sets. Again, if an independent shape has to be provided to the fire compartment, then the entity IfcSpatialZone shall be used.&lt;/div&gt;" style="text;html=1;align=left;verticalAlign=middle;whiteSpace=wrap;rounded=0;" vertex="1" parent="1">
          <mxGeometry x="790" y="110" width="490" height="160" as="geometry" />
        </mxCell>
        <mxCell id="F_-EiX4ZoE0ep-XaQffV-16" style="edgeStyle=orthogonalEdgeStyle;rounded=0;orthogonalLoop=1;jettySize=auto;html=1;exitX=0.5;exitY=1;exitDx=0;exitDy=0;entryX=0.5;entryY=0;entryDx=0;entryDy=0;" edge="1" parent="1" source="F_-EiX4ZoE0ep-XaQffV-10" target="F_-EiX4ZoE0ep-XaQffV-15">
          <mxGeometry relative="1" as="geometry" />
        </mxCell>
        <mxCell id="F_-EiX4ZoE0ep-XaQffV-10" value="&lt;div style=&quot;text-align: start;&quot;&gt;&lt;font face=&quot;monospace&quot; color=&quot;#ba0000&quot;&gt;&lt;span style=&quot;font-size: 0px; text-wrap: nowrap;&quot;&gt;Pset_SpaceOccupancyRequirements&lt;/span&gt;&lt;/font&gt;&lt;span style=&quot;color: rgb(51, 51, 51); font-family: -apple-system, BlinkMacSystemFont, &amp;quot;Segoe UI&amp;quot;, Roboto, Ubuntu, &amp;quot;Helvetica Neue&amp;quot;, Helvetica, sans-serif; font-size: calc(1rem * var(--heading-ratio) * var(--heading-ratio) * var(--heading-ratio) * var(--heading-ratio));&quot;&gt;Pset_SpaceOccupancyRequirements&lt;/span&gt;&lt;/div&gt;" style="rounded=0;whiteSpace=wrap;html=1;" vertex="1" parent="1">
          <mxGeometry x="400" y="299.5" width="230" height="40" as="geometry" />
        </mxCell>
        <mxCell id="F_-EiX4ZoE0ep-XaQffV-31" style="edgeStyle=orthogonalEdgeStyle;rounded=0;orthogonalLoop=1;jettySize=auto;html=1;exitX=0.5;exitY=1;exitDx=0;exitDy=0;entryX=0.5;entryY=0;entryDx=0;entryDy=0;" edge="1" parent="1" source="F_-EiX4ZoE0ep-XaQffV-14" target="F_-EiX4ZoE0ep-XaQffV-30">
          <mxGeometry relative="1" as="geometry" />
        </mxCell>
        <mxCell id="F_-EiX4ZoE0ep-XaQffV-14" value="&lt;div style=&quot;text-align: start;&quot;&gt;&lt;font face=&quot;monospace&quot; color=&quot;#ba0000&quot;&gt;&lt;span style=&quot;font-size: 0px; text-wrap: nowrap;&quot;&gt;Pset_SpaceFireSafetyRequirements&lt;/span&gt;&lt;/font&gt;&lt;span style=&quot;color: rgb(51, 51, 51); font-family: -apple-system, BlinkMacSystemFont, &amp;quot;Segoe UI&amp;quot;, Roboto, Ubuntu, &amp;quot;Helvetica Neue&amp;quot;, Helvetica, sans-serif; font-size: calc(1rem * var(--heading-ratio) * var(--heading-ratio) * var(--heading-ratio) * var(--heading-ratio));&quot;&gt;Pset_SpaceFireSafetyRequirements&lt;/span&gt;&lt;/div&gt;" style="rounded=0;whiteSpace=wrap;html=1;" vertex="1" parent="1">
          <mxGeometry x="650" y="299.5" width="230" height="40" as="geometry" />
        </mxCell>
        <mxCell id="F_-EiX4ZoE0ep-XaQffV-15" value="&lt;div style=&quot;text-align: start;&quot;&gt;&lt;span style=&quot;color: rgb(17, 17, 17); font-family: -apple-system, BlinkMacSystemFont, &amp;quot;Segoe UI&amp;quot;, Roboto, Ubuntu, &amp;quot;Helvetica Neue&amp;quot;, Helvetica, sans-serif; background-color: rgb(248, 248, 248);&quot;&gt;&lt;font style=&quot;font-size: 12px;&quot;&gt;OccupancyNumber&lt;/font&gt;&lt;/span&gt;&lt;br&gt;&lt;/div&gt;" style="rounded=0;whiteSpace=wrap;html=1;" vertex="1" parent="1">
          <mxGeometry x="400" y="380" width="230" height="40" as="geometry" />
        </mxCell>
        <mxCell id="F_-EiX4ZoE0ep-XaQffV-29" style="edgeStyle=orthogonalEdgeStyle;rounded=0;orthogonalLoop=1;jettySize=auto;html=1;entryX=1;entryY=0.5;entryDx=0;entryDy=0;" edge="1" parent="1" source="F_-EiX4ZoE0ep-XaQffV-28" target="F_-EiX4ZoE0ep-XaQffV-14">
          <mxGeometry relative="1" as="geometry" />
        </mxCell>
        <mxCell id="F_-EiX4ZoE0ep-XaQffV-28" value="&lt;div style=&quot;text-align: start;&quot;&gt;&lt;font color=&quot;#ba0000&quot; face=&quot;monospace&quot;&gt;&lt;span style=&quot;font-size: 0px; text-wrap: nowrap;&quot;&gt;Pset_SpaceFireSafetyRequirements&lt;/span&gt;&lt;/font&gt;&lt;span style=&quot;color: rgb(51, 51, 51); font-family: -apple-system, BlinkMacSystemFont, &amp;quot;Segoe UI&amp;quot;, Roboto, Ubuntu, &amp;quot;Helvetica Neue&amp;quot;, Helvetica, sans-serif; font-size: calc(1rem * var(--heading-ratio) * var(--heading-ratio) * var(--heading-ratio) * var(--heading-ratio));&quot;&gt;FireBIM_SpaceFireSaftyReqirements (bsdd)&lt;/span&gt;&lt;/div&gt;" style="rounded=0;whiteSpace=wrap;html=1;" vertex="1" parent="1">
          <mxGeometry x="920" y="300" width="230" height="40" as="geometry" />
        </mxCell>
        <mxCell id="F_-EiX4ZoE0ep-XaQffV-30" value="&lt;div style=&quot;text-align: start;&quot;&gt;&lt;font face=&quot;-apple-system, BlinkMacSystemFont, Segoe UI, Roboto, Ubuntu, Helvetica Neue, Helvetica, sans-serif&quot; color=&quot;#111111&quot;&gt;&lt;span style=&quot;background-color: rgb(248, 248, 248);&quot;&gt;ConnectedToFireExitNumber&lt;/span&gt;&lt;/font&gt;&lt;/div&gt;" style="rounded=0;whiteSpace=wrap;html=1;" vertex="1" parent="1">
          <mxGeometry x="650" y="380" width="230" height="40" as="geometry" />
        </mxCell>
        <mxCell id="F_-EiX4ZoE0ep-XaQffV-36" style="edgeStyle=orthogonalEdgeStyle;rounded=0;orthogonalLoop=1;jettySize=auto;html=1;exitX=0;exitY=0.75;exitDx=0;exitDy=0;entryX=0.5;entryY=1;entryDx=0;entryDy=0;" edge="1" parent="1" source="F_-EiX4ZoE0ep-XaQffV-33" target="F_-EiX4ZoE0ep-XaQffV-15">
          <mxGeometry relative="1" as="geometry">
            <Array as="points">
              <mxPoint x="910" y="410" />
              <mxPoint x="910" y="470" />
              <mxPoint x="515" y="470" />
            </Array>
          </mxGeometry>
        </mxCell>
        <mxCell id="F_-EiX4ZoE0ep-XaQffV-37" style="edgeStyle=orthogonalEdgeStyle;rounded=0;orthogonalLoop=1;jettySize=auto;html=1;exitX=0;exitY=0.5;exitDx=0;exitDy=0;entryX=0.5;entryY=1;entryDx=0;entryDy=0;" edge="1" parent="1" source="F_-EiX4ZoE0ep-XaQffV-33" target="F_-EiX4ZoE0ep-XaQffV-30">
          <mxGeometry relative="1" as="geometry" />
        </mxCell>
        <mxCell id="F_-EiX4ZoE0ep-XaQffV-40" style="edgeStyle=orthogonalEdgeStyle;rounded=0;orthogonalLoop=1;jettySize=auto;html=1;exitX=0.5;exitY=1;exitDx=0;exitDy=0;" edge="1" parent="1" source="F_-EiX4ZoE0ep-XaQffV-33" target="F_-EiX4ZoE0ep-XaQffV-39">
          <mxGeometry relative="1" as="geometry" />
        </mxCell>
        <mxCell id="F_-EiX4ZoE0ep-XaQffV-33" value="&lt;div style=&quot;text-align: start;&quot;&gt;&lt;font color=&quot;#ba0000&quot; face=&quot;monospace&quot;&gt;&lt;span style=&quot;font-size: 0px; text-wrap: nowrap;&quot;&gt;Pset_SpaceFireSafetyRequirements&lt;/span&gt;&lt;/font&gt;&lt;span style=&quot;color: rgb(51, 51, 51); font-family: -apple-system, BlinkMacSystemFont, &amp;quot;Segoe UI&amp;quot;, Roboto, Ubuntu, &amp;quot;Helvetica Neue&amp;quot;, Helvetica, sans-serif; font-size: calc(1rem * var(--heading-ratio) * var(--heading-ratio) * var(--heading-ratio) * var(--heading-ratio));&quot;&gt;FireBIM LOGIC CODE&lt;/span&gt;&lt;/div&gt;" style="rounded=0;whiteSpace=wrap;html=1;" vertex="1" parent="1">
          <mxGeometry x="920" y="380" width="230" height="40" as="geometry" />
        </mxCell>
        <mxCell id="F_-EiX4ZoE0ep-XaQffV-34" value="Function of the code can be simple . e.g.&lt;br&gt;the example in Figure 1&lt;br&gt;but it could (for regions or contries or under circumstanse where sprinklers are present) be more complex and require a spatial distance call, or similar" style="text;html=1;align=center;verticalAlign=middle;whiteSpace=wrap;rounded=0;" vertex="1" parent="1">
          <mxGeometry x="930" y="539" width="210" height="30" as="geometry" />
        </mxCell>
        <mxCell id="F_-EiX4ZoE0ep-XaQffV-39" value="Stop" style="rounded=0;whiteSpace=wrap;html=1;" vertex="1" parent="1">
          <mxGeometry x="945" y="440" width="180" height="40" as="geometry" />
        </mxCell>
      </root>
    </mxGraphModel>
  </diagram>
</mxfile>
